<svg width="528" height="456" viewBox="0 0 528 456" fill="none" xmlns="http://www.w3.org/2000/svg">
<path d="M247 232.967C247 282.121 207.153 321.967 158 321.967C108.847 321.967 69 282.121 69 232.967C69 183.814 108.847 143.967 158 143.967C207.153 143.967 247 183.814 247 232.967Z" fill="#BCC3ED" fill-opacity="0.3"/>
<circle cx="190" cy="394" r="70" fill="#FF6868" fill-opacity="0.15"/>
<circle cx="31" cy="293" r="31" fill="#FF6868" fill-opacity="0.15"/>
<path d="M407 369.5C407 400.704 379.913 426 346.5 426C313.087 426 286 400.704 286 369.5C286 338.296 313.087 313 346.5 313C379.913 313 407 338.296 407 369.5Z" fill="#42ABD9" fill-opacity="0.15"/>
<path d="M156 88C156 107.882 139.882 124 120 124C100.118 124 84 107.882 84 88C84 68.1177 100.118 52 120 52C139.882 52 156 68.1177 156 88Z" fill="#42ABD9" fill-opacity="0.15"/>
<circle cx="378.5" cy="112.5" r="178.5" fill="#5D6DCA" fill-opacity="0.1"/>
</svg>
