<svg width="1200" height="700" viewBox="0 0 1200 700" fill="none" xmlns="http://www.w3.org/2000/svg">
<rect width="1200" height="700" fill="url(#paint0_linear)"/>
<path fill-rule="evenodd" clip-rule="evenodd" d="M329.5 196.875V188.75H330.75V196.875C330.75 197.041 330.816 197.2 330.933 197.317C331.05 197.434 331.209 197.5 331.375 197.5H342.625C342.791 197.5 342.95 197.434 343.067 197.317C343.184 197.2 343.25 197.041 343.25 196.875V188.75H344.5V196.875C344.5 197.372 344.302 197.849 343.951 198.201C343.599 198.552 343.122 198.75 342.625 198.75H331.375C330.878 198.75 330.401 198.552 330.049 198.201C329.698 197.849 329.5 197.372 329.5 196.875V196.875ZM343.25 183.125V187.5L340.75 185V183.125C340.75 182.959 340.816 182.8 340.933 182.683C341.05 182.566 341.209 182.5 341.375 182.5H342.625C342.791 182.5 342.95 182.566 343.067 182.683C343.184 182.8 343.25 182.959 343.25 183.125Z" fill="#DFD8D8" fill-opacity="0.51"/>
<path fill-rule="evenodd" clip-rule="evenodd" d="M336.116 181.875C336.35 181.641 336.668 181.509 337 181.509C337.331 181.509 337.649 181.641 337.884 181.875L346.192 190.183C346.31 190.3 346.376 190.459 346.376 190.625C346.376 190.791 346.31 190.95 346.192 191.068C346.075 191.185 345.916 191.251 345.75 191.251C345.584 191.251 345.425 191.185 345.307 191.068L337 182.759L328.692 191.068C328.575 191.185 328.416 191.251 328.25 191.251C328.084 191.251 327.925 191.185 327.807 191.068C327.69 190.95 327.624 190.791 327.624 190.625C327.624 190.459 327.69 190.3 327.807 190.183L336.116 181.875Z" fill="#DFD8D8" fill-opacity="0.51"/>
<g clip-path="url(#clip0)">
<path fill-rule="evenodd" clip-rule="evenodd" d="M213.639 422.202L210.595 414.668L211.754 414.2L214.798 421.734C214.86 421.887 214.981 422.01 215.133 422.075C215.286 422.14 215.458 422.141 215.611 422.079L226.042 417.865C226.196 417.803 226.319 417.682 226.383 417.529C226.448 417.377 226.45 417.205 226.388 417.051L223.344 409.518L224.503 409.049L227.547 416.583C227.733 417.044 227.728 417.56 227.534 418.018C227.34 418.475 226.972 418.837 226.511 419.024L216.08 423.238C215.619 423.424 215.102 423.42 214.645 423.225C214.187 423.031 213.825 422.663 213.639 422.202V422.202ZM221.237 404.302L222.876 408.359L219.621 406.977L218.919 405.239C218.857 405.085 218.858 404.913 218.923 404.76C218.988 404.608 219.111 404.487 219.264 404.425L220.423 403.957C220.577 403.895 220.749 403.896 220.902 403.961C221.054 404.026 221.175 404.149 221.237 404.302Z" fill="#DFD8D8" fill-opacity="0.51"/>
<path fill-rule="evenodd" clip-rule="evenodd" d="M214.154 405.816C214.284 405.511 214.529 405.269 214.837 405.145C215.144 405.021 215.488 405.024 215.793 405.154L226.609 409.744C226.762 409.808 226.882 409.931 226.945 410.085C227.007 410.239 227.005 410.411 226.94 410.564C226.876 410.717 226.753 410.838 226.599 410.9C226.445 410.962 226.273 410.961 226.12 410.896L215.305 406.304L210.715 417.12C210.65 417.273 210.527 417.393 210.373 417.455C210.219 417.518 210.047 417.516 209.894 417.451C209.741 417.386 209.621 417.264 209.558 417.11C209.496 416.956 209.498 416.783 209.563 416.631L214.154 405.816Z" fill="#DFD8D8" fill-opacity="0.51"/>
</g>
<g clip-path="url(#clip1)">
<path fill-rule="evenodd" clip-rule="evenodd" d="M975.507 106.579L977.623 94.5768L979.47 94.9024L977.353 106.905C977.31 107.15 977.366 107.402 977.509 107.605C977.651 107.809 977.869 107.948 978.114 107.991L994.732 110.921C994.977 110.964 995.229 110.908 995.433 110.766C995.636 110.623 995.775 110.405 995.818 110.161L997.935 98.1583L999.781 98.4839L997.665 110.486C997.535 111.221 997.119 111.874 996.508 112.302C995.897 112.73 995.141 112.897 994.407 112.768L977.788 109.837C977.053 109.708 976.4 109.292 975.973 108.681C975.545 108.07 975.377 107.314 975.507 106.579V106.579ZM999.4 89.849L998.26 96.3118L995.218 91.9676L995.707 89.1978C995.75 88.9529 995.889 88.7352 996.092 88.5926C996.296 88.45 996.548 88.3941 996.793 88.4373L998.639 88.7629C998.884 88.8061 999.102 88.9448 999.245 89.1484C999.387 89.3521 999.443 89.6041 999.4 89.849Z" fill="#DFD8D8" fill-opacity="0.51"/>
<path fill-rule="evenodd" clip-rule="evenodd" d="M989.187 86.1443C989.595 85.8592 990.099 85.7475 990.588 85.8338C991.078 85.9202 991.513 86.1974 991.798 86.6046L1001.91 101.041C1002.05 101.245 1002.11 101.497 1002.06 101.742C1002.02 101.987 1001.88 102.205 1001.68 102.348C1001.47 102.491 1001.22 102.547 1000.98 102.504C1000.73 102.46 1000.51 102.322 1000.37 102.118L990.263 87.6799L975.827 97.7899C975.623 97.9326 975.37 97.9886 975.125 97.9453C974.88 97.9021 974.662 97.7633 974.519 97.5593C974.377 97.3554 974.321 97.1031 974.364 96.8579C974.407 96.6128 974.546 96.3948 974.75 96.252L989.187 86.1443Z" fill="#DFD8D8" fill-opacity="0.51"/>
</g>
<g clip-path="url(#clip2)">
<path fill-rule="evenodd" clip-rule="evenodd" d="M1062.51 322.579L1064.62 310.577L1066.47 310.902L1064.35 322.905C1064.31 323.15 1064.37 323.402 1064.51 323.605C1064.65 323.809 1064.87 323.948 1065.11 323.991L1081.73 326.921C1081.98 326.964 1082.23 326.908 1082.43 326.766C1082.64 326.623 1082.78 326.405 1082.82 326.161L1084.93 314.158L1086.78 314.484L1084.66 326.486C1084.54 327.221 1084.12 327.874 1083.51 328.302C1082.9 328.73 1082.14 328.897 1081.41 328.768L1064.79 325.837C1064.05 325.708 1063.4 325.292 1062.97 324.681C1062.54 324.07 1062.38 323.314 1062.51 322.579V322.579ZM1086.4 305.849L1085.26 312.312L1082.22 307.968L1082.71 305.198C1082.75 304.953 1082.89 304.735 1083.09 304.593C1083.3 304.45 1083.55 304.394 1083.79 304.437L1085.64 304.763C1085.88 304.806 1086.1 304.945 1086.24 305.148C1086.39 305.352 1086.44 305.604 1086.4 305.849Z" fill="#DFD8D8" fill-opacity="0.51"/>
<path fill-rule="evenodd" clip-rule="evenodd" d="M1076.19 302.144C1076.59 301.859 1077.1 301.747 1077.59 301.834C1078.08 301.92 1078.51 302.197 1078.8 302.605L1088.91 317.041C1089.05 317.245 1089.11 317.497 1089.06 317.742C1089.02 317.987 1088.88 318.205 1088.68 318.348C1088.47 318.491 1088.22 318.547 1087.98 318.504C1087.73 318.46 1087.51 318.322 1087.37 318.118L1077.26 303.68L1062.83 313.79C1062.62 313.933 1062.37 313.989 1062.13 313.945C1061.88 313.902 1061.66 313.763 1061.52 313.559C1061.38 313.355 1061.32 313.103 1061.36 312.858C1061.41 312.613 1061.55 312.395 1061.75 312.252L1076.19 302.144Z" fill="#DFD8D8" fill-opacity="0.51"/>
</g>
<g clip-path="url(#clip3)">
<path fill-rule="evenodd" clip-rule="evenodd" d="M277.901 486.19L273.232 482.273L273.835 481.554L278.503 485.471C278.598 485.551 278.721 485.59 278.845 485.579C278.969 485.568 279.084 485.509 279.164 485.414L284.587 478.95C284.667 478.855 284.706 478.732 284.695 478.608C284.684 478.484 284.625 478.37 284.529 478.29L279.861 474.373L280.464 473.655L285.132 477.572C285.418 477.811 285.596 478.155 285.629 478.526C285.661 478.898 285.545 479.267 285.305 479.553L279.882 486.016C279.642 486.302 279.299 486.481 278.927 486.513C278.555 486.546 278.186 486.429 277.901 486.19V486.19ZM276.629 471.661L279.143 473.77L276.501 474.001L275.424 473.097C275.329 473.017 275.269 472.903 275.259 472.779C275.248 472.655 275.287 472.532 275.366 472.437L275.969 471.719C276.049 471.624 276.163 471.564 276.287 471.553C276.411 471.542 276.534 471.581 276.629 471.661Z" fill="#DFD8D8" fill-opacity="0.51"/>
<path fill-rule="evenodd" clip-rule="evenodd" d="M272.472 475.157C272.451 474.909 272.528 474.663 272.688 474.473C272.848 474.282 273.077 474.163 273.324 474.142L282.103 473.373C282.227 473.362 282.35 473.401 282.445 473.481C282.541 473.561 282.6 473.676 282.611 473.8C282.622 473.924 282.583 474.047 282.503 474.142C282.423 474.237 282.309 474.297 282.185 474.308L273.406 475.075L274.175 483.854C274.185 483.978 274.147 484.101 274.067 484.196C273.987 484.292 273.872 484.351 273.748 484.362C273.624 484.373 273.501 484.334 273.405 484.254C273.31 484.174 273.25 484.06 273.24 483.936L272.472 475.157Z" fill="#DFD8D8" fill-opacity="0.51"/>
</g>
<g clip-path="url(#clip4)">
<path fill-rule="evenodd" clip-rule="evenodd" d="M682.507 583.579L684.623 571.577L686.47 571.902L684.353 583.905C684.31 584.15 684.366 584.402 684.509 584.605C684.651 584.809 684.869 584.948 685.114 584.991L701.732 587.921C701.977 587.964 702.229 587.908 702.433 587.766C702.636 587.623 702.775 587.405 702.818 587.161L704.935 575.158L706.781 575.484L704.665 587.486C704.535 588.221 704.119 588.874 703.508 589.302C702.897 589.73 702.141 589.897 701.407 589.768L684.788 586.837C684.053 586.708 683.4 586.292 682.973 585.681C682.545 585.07 682.377 584.314 682.507 583.579V583.579ZM706.4 566.849L705.26 573.312L702.218 568.968L702.707 566.198C702.75 565.953 702.889 565.735 703.092 565.593C703.296 565.45 703.548 565.394 703.793 565.437L705.639 565.763C705.884 565.806 706.102 565.945 706.245 566.148C706.387 566.352 706.443 566.604 706.4 566.849Z" fill="#DFD8D8" fill-opacity="0.51"/>
<path fill-rule="evenodd" clip-rule="evenodd" d="M696.187 563.144C696.595 562.859 697.099 562.747 697.588 562.834C698.078 562.92 698.513 563.197 698.798 563.605L708.908 578.041C709.051 578.245 709.107 578.497 709.064 578.742C709.021 578.987 708.882 579.205 708.678 579.348C708.474 579.491 708.222 579.547 707.976 579.504C707.731 579.46 707.513 579.322 707.371 579.118L697.263 564.68L682.827 574.79C682.623 574.933 682.37 574.989 682.125 574.945C681.88 574.902 681.662 574.763 681.519 574.559C681.377 574.355 681.321 574.103 681.364 573.858C681.407 573.613 681.546 573.395 681.75 573.252L696.187 563.144Z" fill="#DFD8D8" fill-opacity="0.51"/>
</g>
<g clip-path="url(#clip5)">
<path d="M1025.72 210.394L1024.79 215.64L1030.04 216.566L1029.14 215.278L1026.08 214.739L1026.62 211.681L1025.72 210.394Z" fill="#DFD8D8" fill-opacity="0.51"/>
<path d="M1038.44 221.03L1037.15 219.161L1036.89 220.595L1021.57 217.894L1021.97 215.623L1023.07 215.816L1023.22 214.941L1022.13 214.748L1022.77 211.109L1023.86 211.302L1024.02 210.427L1022.92 210.234L1023.54 206.732L1024.64 206.925L1024.79 206.05L1023.7 205.857L1024.24 202.799L1031.43 213.008L1031.7 211.465L1024.38 201.064C1024.31 200.973 1024.23 200.903 1024.12 200.863C1024.02 200.823 1023.91 200.814 1023.8 200.838C1023.69 200.862 1023.59 200.918 1023.52 200.998C1023.44 201.078 1023.39 201.178 1023.37 201.287L1020.38 218.248C1020.36 218.393 1020.39 218.542 1020.48 218.663C1020.56 218.784 1020.69 218.866 1020.83 218.891L1037.88 221.897C1037.99 221.917 1038.1 221.904 1038.2 221.86C1038.3 221.816 1038.39 221.743 1038.45 221.65C1038.51 221.557 1038.54 221.448 1038.54 221.338C1038.53 221.227 1038.5 221.12 1038.44 221.03V221.03Z" fill="#DFD8D8" fill-opacity="0.51"/>
<path d="M1032.71 218.729L1034.9 219.115C1035.19 219.166 1035.49 219.1 1035.73 218.931C1035.97 218.762 1036.13 218.504 1036.19 218.213L1038.05 207.654L1037.2 205.118C1037.13 204.932 1037.01 204.768 1036.86 204.642C1036.71 204.516 1036.53 204.433 1036.33 204.401C1036.13 204.367 1035.93 204.389 1035.74 204.463C1035.55 204.537 1035.39 204.661 1035.26 204.822L1033.67 206.893L1031.81 217.442C1031.76 217.732 1031.82 218.03 1031.99 218.272C1032.16 218.513 1032.42 218.678 1032.71 218.729ZM1034.72 207.349L1036.14 205.473L1036.9 207.74L1035.48 215.832L1033.29 215.446L1034.72 207.349ZM1033.13 216.338L1035.32 216.724L1035.08 218.059L1032.9 217.673L1033.13 216.338Z" fill="#DFD8D8" fill-opacity="0.51"/>
</g>
<g clip-path="url(#clip6)">
<path d="M136.015 334.007L137.512 337.711L141.216 336.215L140.132 335.754L137.972 336.627L137.099 334.467L136.015 334.007Z" fill="#DFD8D8" fill-opacity="0.51"/>
<path d="M148.331 335.717L146.768 335.041L147.177 336.053L136.36 340.423L135.713 338.82L136.485 338.508L136.235 337.89L135.463 338.202L134.425 335.633L135.197 335.321L134.948 334.703L134.175 335.015L133.176 332.542L133.949 332.23L133.699 331.612L132.926 331.924L132.054 329.765L140.686 333.4L140.246 332.311L131.455 328.605C131.379 328.572 131.295 328.563 131.213 328.578C131.132 328.593 131.057 328.633 130.998 328.691C130.939 328.749 130.899 328.823 130.882 328.904C130.866 328.985 130.874 329.069 130.905 329.146L135.744 341.122C135.785 341.224 135.866 341.306 135.967 341.349C136.069 341.393 136.184 341.394 136.286 341.352L148.324 336.489C148.401 336.458 148.467 336.405 148.514 336.337C148.561 336.269 148.586 336.188 148.587 336.105C148.588 336.023 148.564 335.941 148.518 335.872C148.473 335.803 148.408 335.749 148.331 335.717V335.717Z" fill="#DFD8D8" fill-opacity="0.51"/>
<path d="M143.775 336.529L145.32 335.905C145.525 335.822 145.689 335.661 145.775 335.458C145.862 335.254 145.864 335.025 145.781 334.82L142.768 327.364L141.22 326.089C141.103 325.997 140.964 325.939 140.817 325.919C140.67 325.9 140.52 325.92 140.383 325.977C140.243 326.035 140.122 326.13 140.032 326.252C139.941 326.374 139.886 326.518 139.872 326.669L139.681 328.62L142.69 336.069C142.773 336.274 142.934 336.437 143.137 336.524C143.341 336.61 143.57 336.612 143.775 336.529ZM140.528 328.494L140.689 326.734L142.075 327.873L144.384 333.587L142.838 334.211L140.528 328.494ZM143.093 334.841L144.638 334.217L145.019 335.159L143.474 335.783L143.093 334.841Z" fill="#DFD8D8" fill-opacity="0.51"/>
</g>
<g clip-path="url(#clip7)">
<path d="M888.968 538.281L892.029 540.849L894.597 537.788L893.423 537.891L891.926 539.675L890.142 538.178L888.968 538.281Z" fill="#DFD8D8" fill-opacity="0.51"/>
<path d="M900.645 534.009L898.948 534.146L899.784 534.847L892.285 543.784L890.96 542.673L891.496 542.035L890.985 541.606L890.449 542.244L888.327 540.463L888.863 539.825L888.352 539.397L887.816 540.035L885.773 538.321L886.309 537.682L885.798 537.254L885.263 537.892L883.478 536.395L892.807 535.552L891.907 534.797L882.405 535.652C882.322 535.659 882.244 535.69 882.179 535.742C882.115 535.794 882.067 535.863 882.042 535.942C882.017 536.021 882.016 536.106 882.04 536.185C882.063 536.265 882.11 536.335 882.174 536.388L892.068 544.691C892.153 544.762 892.262 544.796 892.372 544.787C892.483 544.777 892.584 544.724 892.655 544.639L901.001 534.694C901.054 534.63 901.088 534.553 901.097 534.471C901.107 534.388 901.091 534.305 901.053 534.232C901.015 534.158 900.956 534.098 900.883 534.058C900.81 534.019 900.728 534.001 900.645 534.009V534.009Z" fill="#DFD8D8" fill-opacity="0.51"/>
<path d="M897.004 536.865L898.075 535.588C898.217 535.419 898.286 535.2 898.267 534.98C898.248 534.76 898.142 534.556 897.972 534.414L891.812 529.245L889.846 528.847C889.7 528.821 889.55 528.834 889.411 528.886C889.272 528.938 889.149 529.026 889.055 529.14C888.959 529.257 888.896 529.398 888.874 529.548C888.851 529.698 888.87 529.852 888.929 529.991L889.676 531.804L895.83 536.968C895.999 537.11 896.218 537.179 896.438 537.16C896.658 537.14 896.862 537.034 897.004 536.865ZM890.365 531.294L889.681 529.665L891.439 530.02L896.16 533.981L895.089 535.258L890.365 531.294ZM895.609 535.695L896.68 534.418L897.459 535.071L896.388 536.348L895.609 535.695Z" fill="#DFD8D8" fill-opacity="0.51"/>
</g>
<path d="M1048 540.672V546H1053.33L1052.22 544.889H1049.11V541.783L1048 540.672Z" fill="#DFD8D8" fill-opacity="0.51"/>
<path d="M1062.37 548.939L1060.78 547.322V548.778H1045.22V546.472H1046.33V545.583H1045.22V541.889H1046.33V541H1045.22V537.444H1046.33V536.556H1045.22V533.45L1054.08 542.256V540.689L1045.06 531.717C1044.98 531.638 1044.88 531.585 1044.78 531.563C1044.67 531.541 1044.56 531.552 1044.45 531.595C1044.35 531.637 1044.26 531.709 1044.2 531.801C1044.14 531.893 1044.11 532.001 1044.11 532.111V549.333C1044.11 549.481 1044.17 549.622 1044.27 549.726C1044.38 549.83 1044.52 549.889 1044.67 549.889H1061.98C1062.09 549.89 1062.2 549.857 1062.29 549.796C1062.38 549.735 1062.45 549.648 1062.49 549.546C1062.54 549.444 1062.55 549.332 1062.53 549.224C1062.5 549.116 1062.45 549.017 1062.37 548.939V548.939Z" fill="#DFD8D8" fill-opacity="0.51"/>
<path d="M1056.33 547.667H1058.56C1058.85 547.667 1059.13 547.55 1059.34 547.341C1059.55 547.133 1059.67 546.85 1059.67 546.556V535.833L1058.39 533.483C1058.29 533.312 1058.15 533.17 1057.98 533.073C1057.8 532.975 1057.61 532.925 1057.41 532.928C1057.21 532.929 1057.01 532.986 1056.84 533.092C1056.67 533.198 1056.53 533.348 1056.43 533.528L1055.22 535.844V546.556C1055.22 546.85 1055.34 547.133 1055.55 547.341C1055.76 547.55 1056.04 547.667 1056.33 547.667ZM1056.33 536.111L1057.41 534.017L1058.56 536.117V544.333H1056.33V536.111ZM1056.33 545.239H1058.56V546.594H1056.33V545.239Z" fill="#DFD8D8" fill-opacity="0.51"/>
<path d="M576 609.672V615H581.328L580.217 613.889H577.111V610.783L576 609.672Z" fill="#DFD8D8" fill-opacity="0.51"/>
<path d="M590.372 617.939L588.778 616.322V617.778H573.222V615.472H574.334V614.583H573.222V610.889H574.334V610H573.222V606.444H574.334V605.556H573.222V602.45L582.078 611.256V609.689L573.061 600.717C572.984 600.638 572.884 600.585 572.776 600.563C572.668 600.541 572.556 600.552 572.454 600.595C572.352 600.637 572.265 600.709 572.204 600.801C572.143 600.893 572.111 601.001 572.111 601.111V618.333C572.111 618.481 572.17 618.622 572.274 618.726C572.378 618.83 572.52 618.889 572.667 618.889H589.978C590.088 618.89 590.196 618.857 590.288 618.796C590.38 618.735 590.452 618.648 590.494 618.546C590.537 618.444 590.548 618.332 590.526 618.224C590.504 618.116 590.451 618.017 590.372 617.939V617.939Z" fill="#DFD8D8" fill-opacity="0.51"/>
<path d="M584.334 616.667H586.556C586.851 616.667 587.133 616.55 587.342 616.341C587.55 616.133 587.667 615.85 587.667 615.556V604.833L586.389 602.483C586.29 602.312 586.148 602.17 585.976 602.073C585.804 601.975 585.609 601.925 585.412 601.928C585.209 601.929 585.012 601.986 584.839 602.092C584.667 602.198 584.527 602.348 584.434 602.528L583.223 604.844V615.556C583.223 615.85 583.34 616.133 583.548 616.341C583.756 616.55 584.039 616.667 584.334 616.667ZM584.334 605.111L585.412 603.017L586.556 605.117V613.333H584.334V605.111ZM584.334 614.239H586.556V615.594H584.334V614.239Z" fill="#DFD8D8" fill-opacity="0.51"/>
<path fill-rule="evenodd" clip-rule="evenodd" d="M260 49.652C260 49.7142 259.983 49.7752 259.95 49.828C259.917 49.8807 259.869 49.9232 259.813 49.9505C259.758 49.9779 259.695 49.989 259.633 49.9826C259.571 49.9763 259.512 49.9528 259.463 49.9147L257.339 48.2627C257.299 48.2315 257.267 48.1916 257.245 48.1461C257.222 48.1006 257.211 48.0506 257.211 48C257.211 47.9494 257.222 47.8994 257.245 47.8539C257.267 47.8084 257.299 47.7685 257.339 47.7373L259.463 46.084C259.512 46.0458 259.572 46.0222 259.634 46.0159C259.696 46.0097 259.759 46.0211 259.815 46.0487C259.871 46.0764 259.918 46.1192 259.951 46.1724C259.983 46.2255 260.001 46.2869 260 46.3493V47.336H268V46.3467C268 46.2842 268.018 46.223 268.051 46.17C268.084 46.117 268.131 46.0744 268.188 46.047C268.244 46.0196 268.307 46.0085 268.369 46.0151C268.431 46.0216 268.49 46.0455 268.539 46.084L270.662 47.736C270.702 47.7672 270.734 47.807 270.756 47.8525C270.778 47.8981 270.79 47.948 270.79 47.9987C270.79 48.0493 270.778 48.0993 270.756 48.1448C270.734 48.1903 270.702 48.2302 270.662 48.2613L268.539 49.9147C268.49 49.9532 268.431 49.9771 268.368 49.9836C268.306 49.9901 268.243 49.979 268.187 49.9514C268.131 49.9239 268.083 49.881 268.05 49.8279C268.017 49.7747 268 49.7133 268 49.6507V48.6667H260V49.652ZM268.667 52.6667H259.334C259.157 52.6667 258.987 52.7369 258.862 52.8619C258.737 52.987 258.667 53.1565 258.667 53.3333V62.6667C258.667 62.8435 258.737 63.013 258.862 63.1381C258.987 63.2631 259.157 63.3333 259.334 63.3333H268.667C268.844 63.3333 269.013 63.2631 269.138 63.1381C269.263 63.013 269.334 62.8435 269.334 62.6667V53.3333C269.334 53.1565 269.263 52.987 269.138 52.8619C269.013 52.7369 268.844 52.6667 268.667 52.6667ZM259.334 51.3333C258.803 51.3333 258.295 51.544 257.919 51.9191C257.544 52.2942 257.334 52.8029 257.334 53.3333V62.6667C257.334 63.1971 257.544 63.7058 257.919 64.0809C258.295 64.456 258.803 64.6667 259.334 64.6667H268.667C269.197 64.6667 269.706 64.456 270.081 64.0809C270.456 63.7058 270.667 63.1971 270.667 62.6667V53.3333C270.667 52.8029 270.456 52.2942 270.081 51.9191C269.706 51.544 269.197 51.3333 268.667 51.3333H259.334ZM275.652 54H274.667V62H275.652C275.715 62.0002 275.776 62.0178 275.828 62.0508C275.881 62.0839 275.924 62.131 275.951 62.1869C275.978 62.2429 275.989 62.3053 275.983 62.3673C275.977 62.4292 275.953 62.4881 275.915 62.5373L274.263 64.6613C274.232 64.7012 274.192 64.7335 274.147 64.7557C274.101 64.7779 274.051 64.7894 274 64.7894C273.95 64.7894 273.9 64.7779 273.854 64.7557C273.809 64.7335 273.769 64.7012 273.738 64.6613L272.084 62.5373C272.046 62.488 272.023 62.429 272.016 62.3669C272.01 62.3049 272.021 62.2423 272.049 62.1863C272.076 62.1304 272.119 62.0832 272.172 62.0503C272.225 62.0174 272.286 61.9999 272.348 62H273.334V54H272.348C272.286 53.9998 272.225 53.9822 272.172 53.9492C272.12 53.9161 272.077 53.869 272.05 53.8131C272.023 53.7571 272.011 53.6947 272.018 53.6327C272.024 53.5708 272.048 53.5119 272.086 53.4627L273.738 51.3387C273.769 51.2988 273.809 51.2665 273.854 51.2443C273.9 51.2221 273.95 51.2106 274 51.2106C274.051 51.2106 274.101 51.2221 274.147 51.2443C274.192 51.2665 274.232 51.2988 274.263 51.3387L275.916 53.4627C275.955 53.512 275.978 53.571 275.984 53.6331C275.991 53.6951 275.979 53.7577 275.952 53.8137C275.924 53.8696 275.882 53.9168 275.829 53.9497C275.776 53.9826 275.715 54.0001 275.652 54V54Z" fill="#DFD8D8" fill-opacity="0.51"/>
<g clip-path="url(#clip8)">
<path fill-rule="evenodd" clip-rule="evenodd" d="M595.369 347.604C595.416 347.644 595.452 347.697 595.471 347.756C595.49 347.815 595.492 347.879 595.477 347.939C595.462 348 595.43 348.055 595.386 348.098C595.341 348.141 595.285 348.171 595.224 348.185L592.594 348.75C592.544 348.76 592.493 348.759 592.444 348.747C592.395 348.735 592.349 348.712 592.31 348.679C592.271 348.647 592.24 348.606 592.22 348.559C592.199 348.513 592.189 348.463 592.191 348.412L592.29 345.722C592.292 345.66 592.312 345.599 592.348 345.548C592.383 345.496 592.432 345.455 592.489 345.43C592.546 345.405 592.609 345.397 592.671 345.406C592.733 345.415 592.791 345.441 592.839 345.481L593.594 346.115L598.737 339.987L597.979 339.351C597.931 339.311 597.895 339.258 597.876 339.199C597.857 339.139 597.854 339.076 597.87 339.015C597.885 338.954 597.917 338.899 597.962 338.856C598.006 338.812 598.063 338.783 598.124 338.77L600.754 338.205C600.803 338.195 600.855 338.196 600.904 338.208C600.953 338.22 600.999 338.244 601.037 338.276C601.076 338.309 601.107 338.35 601.128 338.396C601.148 338.442 601.158 338.493 601.156 338.543L601.058 341.232C601.056 341.295 601.036 341.355 601.001 341.407C600.966 341.459 600.917 341.5 600.86 341.525C600.803 341.551 600.74 341.559 600.678 341.55C600.616 341.542 600.558 341.515 600.51 341.475L599.756 340.842L594.614 346.971L595.369 347.604ZM603.249 342.903L597.249 350.053C597.136 350.188 597.081 350.363 597.096 350.539C597.111 350.715 597.196 350.878 597.332 350.992L604.481 356.991C604.617 357.105 604.792 357.16 604.968 357.145C605.144 357.129 605.307 357.044 605.421 356.909L611.42 349.759C611.534 349.624 611.589 349.449 611.573 349.273C611.558 349.096 611.473 348.934 611.338 348.82L604.188 342.821C604.053 342.707 603.877 342.652 603.701 342.667C603.525 342.683 603.362 342.767 603.249 342.903ZM596.228 349.196C595.887 349.602 595.721 350.127 595.768 350.655C595.814 351.184 596.068 351.672 596.475 352.013L603.624 358.013C604.031 358.354 604.556 358.519 605.084 358.473C605.613 358.427 606.101 358.172 606.442 357.766L612.441 350.616C612.782 350.21 612.948 349.685 612.902 349.156C612.855 348.628 612.601 348.14 612.195 347.799L605.045 341.799C604.639 341.458 604.114 341.293 603.585 341.339C603.057 341.385 602.568 341.639 602.227 342.046L596.228 349.196ZM608.76 338.409L608.127 339.164L614.255 344.306L614.889 343.551C614.929 343.504 614.981 343.468 615.041 343.449C615.1 343.43 615.163 343.428 615.224 343.443C615.284 343.458 615.339 343.489 615.382 343.534C615.426 343.579 615.456 343.634 615.469 343.695L616.034 346.326C616.045 346.376 616.044 346.427 616.032 346.476C616.019 346.525 615.996 346.571 615.964 346.61C615.931 346.648 615.89 346.679 615.844 346.7C615.798 346.721 615.747 346.73 615.697 346.729L613.007 346.63C612.944 346.627 612.884 346.607 612.832 346.572C612.781 346.537 612.74 346.488 612.715 346.431C612.69 346.374 612.681 346.311 612.69 346.25C612.699 346.188 612.725 346.13 612.765 346.082L613.398 345.327L607.27 340.185L606.636 340.94C606.596 340.987 606.544 341.023 606.484 341.042C606.425 341.061 606.362 341.063 606.301 341.048C606.241 341.033 606.186 341.002 606.143 340.957C606.099 340.912 606.069 340.856 606.056 340.796L605.491 338.165C605.48 338.115 605.481 338.064 605.493 338.015C605.506 337.966 605.529 337.92 605.562 337.881C605.594 337.843 605.635 337.812 605.681 337.791C605.728 337.77 605.778 337.761 605.828 337.762L608.518 337.861C608.581 337.864 608.641 337.884 608.693 337.919C608.744 337.954 608.785 338.003 608.81 338.06C608.835 338.117 608.844 338.18 608.835 338.241C608.826 338.303 608.8 338.361 608.76 338.409V338.409Z" fill="#DFD8D8" fill-opacity="0.51"/>
</g>
<g clip-path="url(#clip9)">
<path fill-rule="evenodd" clip-rule="evenodd" d="M758.369 463.604C758.416 463.644 758.452 463.697 758.471 463.756C758.49 463.815 758.492 463.879 758.477 463.939C758.462 464 758.43 464.055 758.386 464.098C758.341 464.141 758.285 464.171 758.224 464.185L755.594 464.75C755.544 464.76 755.493 464.759 755.444 464.747C755.395 464.735 755.349 464.712 755.31 464.679C755.271 464.647 755.24 464.606 755.22 464.559C755.199 464.513 755.189 464.463 755.191 464.412L755.29 461.722C755.292 461.66 755.312 461.599 755.348 461.548C755.383 461.496 755.432 461.455 755.489 461.43C755.546 461.405 755.609 461.397 755.671 461.406C755.733 461.415 755.791 461.441 755.839 461.481L756.594 462.115L761.737 455.987L760.979 455.351C760.931 455.311 760.895 455.258 760.876 455.199C760.857 455.139 760.854 455.076 760.87 455.015C760.885 454.954 760.917 454.899 760.962 454.856C761.006 454.812 761.063 454.783 761.124 454.77L763.754 454.205C763.803 454.195 763.855 454.196 763.904 454.208C763.953 454.22 763.999 454.244 764.037 454.276C764.076 454.309 764.107 454.35 764.128 454.396C764.148 454.442 764.158 454.493 764.156 454.543L764.058 457.232C764.056 457.295 764.036 457.355 764.001 457.407C763.966 457.459 763.917 457.5 763.86 457.525C763.803 457.551 763.74 457.559 763.678 457.55C763.616 457.542 763.558 457.515 763.51 457.475L762.756 456.842L757.614 462.971L758.369 463.604ZM766.249 458.903L760.249 466.053C760.136 466.188 760.081 466.363 760.096 466.539C760.111 466.715 760.196 466.878 760.332 466.992L767.481 472.991C767.617 473.105 767.792 473.16 767.968 473.145C768.144 473.129 768.307 473.044 768.421 472.909L774.42 465.759C774.534 465.624 774.589 465.449 774.573 465.273C774.558 465.096 774.473 464.934 774.338 464.82L767.188 458.821C767.053 458.707 766.877 458.652 766.701 458.667C766.525 458.683 766.362 458.767 766.249 458.903ZM759.228 465.196C758.887 465.602 758.721 466.127 758.768 466.655C758.814 467.184 759.068 467.672 759.475 468.013L766.624 474.013C767.031 474.354 767.556 474.519 768.084 474.473C768.613 474.427 769.101 474.172 769.442 473.766L775.441 466.616C775.782 466.21 775.948 465.685 775.902 465.156C775.855 464.628 775.601 464.14 775.195 463.799L768.045 457.799C767.639 457.458 767.114 457.293 766.585 457.339C766.057 457.385 765.568 457.639 765.227 458.046L759.228 465.196ZM771.76 454.409L771.127 455.164L777.255 460.306L777.889 459.551C777.929 459.504 777.981 459.468 778.041 459.449C778.1 459.43 778.163 459.428 778.224 459.443C778.284 459.458 778.339 459.489 778.382 459.534C778.426 459.579 778.456 459.634 778.469 459.695L779.034 462.326C779.045 462.376 779.044 462.427 779.032 462.476C779.019 462.525 778.996 462.571 778.964 462.61C778.931 462.648 778.89 462.679 778.844 462.7C778.798 462.721 778.747 462.73 778.697 462.729L776.007 462.63C775.944 462.627 775.884 462.607 775.832 462.572C775.781 462.537 775.74 462.488 775.715 462.431C775.69 462.374 775.681 462.311 775.69 462.25C775.699 462.188 775.725 462.13 775.765 462.082L776.398 461.327L770.27 456.185L769.636 456.94C769.596 456.987 769.544 457.023 769.484 457.042C769.425 457.061 769.362 457.063 769.301 457.048C769.241 457.033 769.186 457.002 769.143 456.957C769.099 456.912 769.069 456.856 769.056 456.796L768.491 454.165C768.48 454.115 768.481 454.064 768.493 454.015C768.506 453.966 768.529 453.92 768.562 453.881C768.594 453.843 768.635 453.812 768.681 453.791C768.728 453.77 768.778 453.761 768.828 453.762L771.518 453.861C771.581 453.864 771.641 453.884 771.693 453.919C771.744 453.954 771.785 454.003 771.81 454.06C771.835 454.117 771.844 454.18 771.835 454.241C771.826 454.303 771.8 454.361 771.76 454.409V454.409Z" fill="#DFD8D8" fill-opacity="0.51"/>
</g>
<g clip-path="url(#clip10)">
<path fill-rule="evenodd" clip-rule="evenodd" d="M1025.96 373.887C1026 373.917 1026.02 373.957 1026.04 374.001C1026.05 374.045 1026.05 374.093 1026.04 374.138C1026.03 374.184 1026.01 374.225 1025.97 374.257C1025.94 374.29 1025.9 374.312 1025.85 374.322L1023.88 374.746C1023.84 374.754 1023.8 374.753 1023.77 374.744C1023.73 374.735 1023.69 374.718 1023.67 374.693C1023.64 374.669 1023.61 374.638 1023.6 374.603C1023.58 374.569 1023.58 374.531 1023.58 374.493L1023.65 372.476C1023.65 372.429 1023.67 372.383 1023.69 372.345C1023.72 372.306 1023.76 372.275 1023.8 372.257C1023.84 372.238 1023.89 372.231 1023.94 372.238C1023.98 372.245 1024.03 372.264 1024.06 372.295L1024.63 372.77L1028.49 368.174L1027.92 367.697C1027.88 367.667 1027.85 367.627 1027.84 367.583C1027.83 367.538 1027.82 367.491 1027.84 367.445C1027.85 367.4 1027.87 367.358 1027.9 367.326C1027.94 367.293 1027.98 367.271 1028.03 367.261L1030 366.838C1030.04 366.83 1030.07 366.831 1030.11 366.84C1030.15 366.849 1030.18 366.867 1030.21 366.891C1030.24 366.915 1030.26 366.946 1030.28 366.981C1030.29 367.015 1030.3 367.053 1030.3 367.091L1030.23 369.108C1030.23 369.155 1030.21 369.2 1030.18 369.239C1030.16 369.278 1030.12 369.309 1030.08 369.328C1030.04 369.347 1029.99 369.353 1029.94 369.347C1029.9 369.34 1029.85 369.32 1029.82 369.29L1029.25 368.816L1025.39 373.412L1025.96 373.887ZM1031.87 370.361L1027.37 375.723C1027.29 375.825 1027.24 375.956 1027.26 376.088C1027.27 376.22 1027.33 376.342 1027.43 376.428L1032.79 380.927C1032.9 381.012 1033.03 381.054 1033.16 381.042C1033.29 381.031 1033.41 380.967 1033.5 380.866L1038 375.503C1038.08 375.402 1038.12 375.27 1038.11 375.138C1038.1 375.006 1038.04 374.884 1037.94 374.799L1032.57 370.299C1032.47 370.214 1032.34 370.173 1032.21 370.184C1032.08 370.196 1031.96 370.259 1031.87 370.361ZM1026.6 375.08C1026.35 375.385 1026.22 375.779 1026.26 376.175C1026.29 376.572 1026.48 376.938 1026.79 377.194L1032.15 381.693C1032.46 381.949 1032.85 382.073 1033.25 382.038C1033.64 382.004 1034.01 381.813 1034.26 381.508L1038.76 376.146C1039.02 375.841 1039.14 375.447 1039.11 375.051C1039.07 374.655 1038.88 374.289 1038.58 374.033L1033.22 369.533C1032.91 369.278 1032.52 369.153 1032.12 369.188C1031.73 369.223 1031.36 369.413 1031.1 369.718L1026.6 375.08ZM1036 366.99L1035.53 367.557L1040.12 371.413L1040.6 370.847C1040.63 370.811 1040.67 370.785 1040.71 370.771C1040.76 370.756 1040.81 370.755 1040.85 370.766C1040.9 370.777 1040.94 370.801 1040.97 370.834C1041 370.868 1041.03 370.91 1041.04 370.955L1041.46 372.928C1041.47 372.966 1041.47 373.004 1041.46 373.041C1041.45 373.078 1041.43 373.112 1041.41 373.141C1041.38 373.17 1041.35 373.193 1041.32 373.209C1041.28 373.224 1041.24 373.232 1041.21 373.23L1039.19 373.156C1039.14 373.154 1039.1 373.139 1039.06 373.113C1039.02 373.087 1038.99 373.05 1038.97 373.007C1038.95 372.965 1038.94 372.917 1038.95 372.871C1038.96 372.825 1038.98 372.781 1039.01 372.745L1039.48 372.179L1034.89 368.323L1034.41 368.889C1034.38 368.924 1034.34 368.951 1034.3 368.965C1034.25 368.98 1034.2 368.981 1034.16 368.97C1034.11 368.959 1034.07 368.935 1034.04 368.902C1034.01 368.868 1033.99 368.826 1033.98 368.781L1033.55 366.807C1033.54 366.77 1033.54 366.732 1033.55 366.695C1033.56 366.658 1033.58 366.624 1033.6 366.595C1033.63 366.566 1033.66 366.543 1033.69 366.527C1033.73 366.512 1033.77 366.504 1033.8 366.506L1035.82 366.58C1035.87 366.582 1035.91 366.596 1035.95 366.623C1035.99 366.649 1036.02 366.686 1036.04 366.728C1036.06 366.771 1036.07 366.819 1036.06 366.865C1036.05 366.911 1036.03 366.955 1036 366.99V366.99Z" fill="#DFD8D8" fill-opacity="0.51"/>
</g>
<path fill-rule="evenodd" clip-rule="evenodd" d="M502.001 424.478C502 424.571 501.974 424.663 501.924 424.742C501.875 424.821 501.804 424.885 501.72 424.926C501.636 424.967 501.543 424.983 501.45 424.974C501.357 424.964 501.268 424.929 501.195 424.872L498.009 422.394C497.949 422.347 497.9 422.287 497.867 422.219C497.834 422.151 497.816 422.076 497.816 422C497.816 421.924 497.834 421.849 497.867 421.781C497.9 421.713 497.949 421.653 498.009 421.606L501.195 419.126C501.269 419.069 501.357 419.033 501.451 419.024C501.544 419.015 501.638 419.032 501.722 419.073C501.806 419.115 501.877 419.179 501.926 419.259C501.975 419.338 502.001 419.43 502.001 419.524V421.004H514.001V419.52C514.001 419.426 514.027 419.334 514.077 419.255C514.126 419.175 514.197 419.112 514.281 419.07C514.366 419.029 514.46 419.013 514.553 419.023C514.646 419.032 514.735 419.068 514.809 419.126L517.993 421.604C518.052 421.651 518.101 421.711 518.134 421.779C518.167 421.847 518.185 421.922 518.185 421.998C518.185 422.074 518.167 422.149 518.134 422.217C518.101 422.285 518.052 422.345 517.993 422.392L514.809 424.872C514.735 424.93 514.646 424.966 514.552 424.975C514.459 424.985 514.365 424.968 514.281 424.927C514.196 424.886 514.125 424.822 514.076 424.742C514.026 424.662 514 424.57 514.001 424.476V423H502.001V424.478ZM515.001 429H501.001C500.735 429 500.481 429.105 500.293 429.293C500.106 429.48 500.001 429.735 500.001 430V444C500.001 444.265 500.106 444.52 500.293 444.707C500.481 444.895 500.735 445 501.001 445H515.001C515.266 445 515.52 444.895 515.708 444.707C515.895 444.52 516.001 444.265 516.001 444V430C516.001 429.735 515.895 429.48 515.708 429.293C515.52 429.105 515.266 429 515.001 429ZM501.001 427C500.205 427 499.442 427.316 498.879 427.879C498.317 428.441 498.001 429.204 498.001 430V444C498.001 444.796 498.317 445.559 498.879 446.121C499.442 446.684 500.205 447 501.001 447H515.001C515.796 447 516.559 446.684 517.122 446.121C517.684 445.559 518.001 444.796 518.001 444V430C518.001 429.204 517.684 428.441 517.122 427.879C516.559 427.316 515.796 427 515.001 427H501.001ZM525.479 431H524.001V443H525.479C525.572 443 525.663 443.027 525.743 443.076C525.822 443.126 525.885 443.197 525.926 443.28C525.967 443.364 525.984 443.458 525.975 443.551C525.965 443.644 525.93 443.732 525.873 443.806L523.395 446.992C523.348 447.052 523.288 447.1 523.22 447.134C523.151 447.167 523.077 447.184 523.001 447.184C522.925 447.184 522.85 447.167 522.781 447.134C522.713 447.1 522.653 447.052 522.607 446.992L520.127 443.806C520.069 443.732 520.034 443.643 520.025 443.55C520.015 443.457 520.032 443.363 520.073 443.28C520.114 443.196 520.178 443.125 520.258 443.075C520.337 443.026 520.429 443 520.523 443H522.001V431H520.523C520.429 431 520.338 430.973 520.259 430.924C520.179 430.874 520.116 430.803 520.075 430.72C520.034 430.636 520.017 430.542 520.027 430.449C520.036 430.356 520.071 430.268 520.129 430.194L522.607 427.008C522.653 426.948 522.713 426.9 522.781 426.866C522.85 426.833 522.925 426.816 523.001 426.816C523.077 426.816 523.151 426.833 523.22 426.866C523.288 426.9 523.348 426.948 523.395 427.008L525.875 430.194C525.932 430.268 525.967 430.357 525.977 430.45C525.986 430.543 525.969 430.637 525.928 430.72C525.887 430.804 525.823 430.875 525.743 430.925C525.664 430.974 525.572 431 525.479 431V431Z" fill="#DFD8D8" fill-opacity="0.51"/>
<path fill-rule="evenodd" clip-rule="evenodd" d="M877.63 359.297C877.709 359.368 877.769 359.457 877.804 359.558C877.839 359.659 877.848 359.766 877.829 359.871L874.573 378.336C874.545 378.5 874.452 378.645 874.316 378.74C874.181 378.835 874.013 378.872 873.849 378.843L870.156 378.192C869.993 378.163 869.848 378.071 869.753 377.935C869.658 377.799 869.621 377.631 869.649 377.468L869.975 375.622L868.744 375.405L868.418 377.251C868.39 377.414 868.297 377.559 868.161 377.655C868.026 377.75 867.858 377.787 867.694 377.758L856.615 375.805C856.452 375.776 856.307 375.683 856.212 375.548C856.117 375.412 856.079 375.244 856.108 375.081L857.302 368.31C857.325 368.181 857.388 368.062 857.482 367.971C857.576 367.879 857.696 367.82 857.826 367.801L865.2 366.707L865.882 362.842C865.902 362.728 865.954 362.621 866.031 362.535C866.108 362.448 866.208 362.385 866.319 362.351L877.035 359.164C877.137 359.133 877.246 359.13 877.35 359.153C877.454 359.176 877.55 359.226 877.63 359.297V359.297ZM864.972 368.005L858.455 368.97L857.448 374.682L863.603 375.767L864.972 368.005ZM864.834 375.984L867.296 376.419L867.621 374.572C867.65 374.409 867.743 374.264 867.878 374.169C868.014 374.074 868.182 374.036 868.345 374.065L870.808 374.499C870.971 374.528 871.116 374.62 871.211 374.756C871.306 374.892 871.343 375.06 871.314 375.223L870.989 377.07L873.451 377.504L876.423 360.65L867.046 363.439L864.834 375.984Z" fill="#DFD8D8" fill-opacity="0.51"/>
<path d="M859.547 369.975L860.778 370.192L860.561 371.423L859.33 371.206L859.547 369.975ZM862.009 370.409L863.24 370.626L863.023 371.857L861.792 371.64L862.009 370.409ZM859.113 372.437L860.344 372.654L860.127 373.885L858.896 373.668L859.113 372.437ZM861.575 372.871L862.806 373.088L862.589 374.319L861.358 374.102L861.575 372.871ZM867.367 368.815L868.598 369.033L868.381 370.264L867.15 370.046L867.367 368.815ZM869.829 369.25L871.06 369.467L870.843 370.698L869.612 370.481L869.829 369.25ZM866.933 371.277L868.164 371.495L867.947 372.726L866.716 372.508L866.933 371.277ZM869.395 371.712L870.626 371.929L870.409 373.16L869.178 372.943L869.395 371.712ZM872.291 369.684L873.522 369.901L873.305 371.132L872.074 370.915L872.291 369.684ZM871.857 372.146L873.088 372.363L872.871 373.594L871.64 373.377L871.857 372.146ZM867.801 366.353L869.032 366.571L868.815 367.802L867.584 367.584L867.801 366.353ZM870.263 366.788L871.494 367.005L871.277 368.236L870.046 368.019L870.263 366.788ZM872.725 367.222L873.956 367.439L873.739 368.67L872.508 368.453L872.725 367.222ZM868.235 363.891L869.466 364.108L869.249 365.339L868.018 365.122L868.235 363.891ZM870.697 364.326L871.928 364.543L871.711 365.774L870.48 365.557L870.697 364.326ZM873.159 364.76L874.39 364.977L874.173 366.208L872.942 365.991L873.159 364.76ZM873.593 362.298L874.824 362.515L874.607 363.746L873.376 363.529L873.593 362.298Z" fill="#DFD8D8" fill-opacity="0.51"/>
<path fill-rule="evenodd" clip-rule="evenodd" d="M893.681 200.141C893.816 200.225 893.929 200.342 894.006 200.481C894.084 200.621 894.125 200.778 894.125 200.937V229.062C894.125 229.311 894.026 229.549 893.85 229.725C893.675 229.901 893.436 230 893.188 230H887.562C887.314 230 887.075 229.901 886.9 229.725C886.724 229.549 886.625 229.311 886.625 229.062V226.25H884.75V229.062C884.75 229.311 884.651 229.549 884.475 229.725C884.3 229.901 884.061 230 883.812 230H866.938C866.689 230 866.45 229.901 866.275 229.725C866.099 229.549 866 229.311 866 229.062V218.75C866 218.553 866.062 218.362 866.177 218.202C866.292 218.043 866.455 217.923 866.641 217.861L877.25 214.325V208.437C877.25 208.263 877.298 208.093 877.39 207.945C877.481 207.797 877.612 207.677 877.768 207.599L892.768 200.099C892.911 200.028 893.07 199.994 893.229 200.001C893.389 200.008 893.545 200.056 893.681 200.141V200.141ZM877.25 216.301L867.875 219.425V228.125H877.25V216.301ZM879.125 228.125H882.875V225.312C882.875 225.064 882.974 224.825 883.15 224.649C883.325 224.474 883.564 224.375 883.812 224.375H887.562C887.811 224.375 888.05 224.474 888.225 224.649C888.401 224.825 888.5 225.064 888.5 225.312V228.125H892.25V202.454L879.125 209.017V228.125Z" fill="#DFD8D8" fill-opacity="0.51"/>
<path d="M869.75 220.625H871.625V222.5H869.75V220.625ZM873.5 220.625H875.375V222.5H873.5V220.625ZM869.75 224.375H871.625V226.25H869.75V224.375ZM873.5 224.375H875.375V226.25H873.5V224.375ZM881 216.875H882.875V218.75H881V216.875ZM884.75 216.875H886.625V218.75H884.75V216.875ZM881 220.625H882.875V222.5H881V220.625ZM884.75 220.625H886.625V222.5H884.75V220.625ZM888.5 216.875H890.375V218.75H888.5V216.875ZM888.5 220.625H890.375V222.5H888.5V220.625ZM881 213.125H882.875V215H881V213.125ZM884.75 213.125H886.625V215H884.75V213.125ZM888.5 213.125H890.375V215H888.5V213.125ZM881 209.375H882.875V211.25H881V209.375ZM884.75 209.375H886.625V211.25H884.75V209.375ZM888.5 209.375H890.375V211.25H888.5V209.375ZM888.5 205.625H890.375V207.5H888.5V205.625Z" fill="#DFD8D8" fill-opacity="0.51"/>
<g clip-path="url(#clip11)">
<path fill-rule="evenodd" clip-rule="evenodd" d="M493.718 164.999C493.875 165.026 494.023 165.093 494.147 165.193C494.272 165.293 494.368 165.424 494.428 165.572L504.964 191.649C505.057 191.879 505.055 192.137 504.958 192.366C504.861 192.595 504.676 192.776 504.446 192.869L499.231 194.976C499 195.069 498.742 195.067 498.513 194.97C498.284 194.873 498.103 194.689 498.01 194.458L496.957 191.85L495.218 192.553L496.272 195.161C496.365 195.391 496.363 195.649 496.265 195.878C496.168 196.107 495.984 196.288 495.754 196.381L480.107 202.702C479.877 202.796 479.619 202.793 479.39 202.696C479.161 202.599 478.98 202.415 478.887 202.184L475.024 192.623C474.95 192.44 474.936 192.239 474.983 192.048C475.03 191.857 475.136 191.686 475.285 191.559L483.797 184.306L481.591 178.847C481.526 178.686 481.507 178.509 481.537 178.338C481.566 178.166 481.642 178.006 481.757 177.876L492.856 165.303C492.961 165.183 493.096 165.092 493.247 165.039C493.398 164.986 493.56 164.972 493.718 164.999V164.999ZM484.537 186.138L477.015 192.546L480.274 200.613L488.967 197.101L484.537 186.138ZM490.705 196.398L494.182 194.994L493.128 192.386C493.035 192.155 493.037 191.897 493.135 191.668C493.232 191.44 493.416 191.259 493.646 191.166L497.123 189.761C497.354 189.668 497.612 189.67 497.841 189.767C498.07 189.864 498.251 190.048 498.344 190.279L499.397 192.887L502.874 191.482L493.258 167.68L483.547 178.682L490.705 196.398Z" fill="#DFD8D8" fill-opacity="0.51"/>
<path d="M479.203 192.957L480.942 192.254L481.644 193.993L479.905 194.695L479.203 192.957ZM482.68 191.552L484.418 190.849L485.121 192.588L483.382 193.29L482.68 191.552ZM480.608 196.434L482.346 195.731L483.049 197.47L481.31 198.172L480.608 196.434ZM484.085 195.029L485.823 194.326L486.526 196.065L484.787 196.767L484.085 195.029ZM488.229 185.265L489.968 184.563L490.67 186.301L488.932 187.004L488.229 185.265ZM491.706 183.861L493.445 183.158L494.147 184.897L492.408 185.599L491.706 183.861ZM489.634 188.742L491.372 188.04L492.075 189.778L490.336 190.481L489.634 188.742ZM493.111 187.338L494.849 186.635L495.552 188.374L493.813 189.076L493.111 187.338ZM495.183 182.456L496.921 181.753L497.624 183.492L495.885 184.194L495.183 182.456ZM496.588 185.933L498.326 185.23L499.029 186.969L497.29 187.671L496.588 185.933ZM486.824 181.788L488.563 181.086L489.265 182.824L487.527 183.527L486.824 181.788ZM490.301 180.384L492.04 179.681L492.742 181.42L491.004 182.122L490.301 180.384ZM493.778 178.979L495.517 178.276L496.219 180.015L494.481 180.717L493.778 178.979ZM485.42 178.311L487.158 177.609L487.86 179.348L486.122 180.05L485.42 178.311ZM488.897 176.907L490.635 176.204L491.337 177.943L489.599 178.645L488.897 176.907ZM492.373 175.502L494.112 174.8L494.814 176.538L493.076 177.24L492.373 175.502ZM490.969 172.025L492.707 171.323L493.41 173.061L491.671 173.763L490.969 172.025Z" fill="#DFD8D8" fill-opacity="0.51"/>
</g>
<path fill-rule="evenodd" clip-rule="evenodd" d="M877.454 551.094C877.544 551.15 877.619 551.228 877.671 551.321C877.723 551.414 877.75 551.519 877.75 551.625V570.375C877.75 570.541 877.684 570.7 877.567 570.817C877.45 570.934 877.291 571 877.125 571H873.375C873.209 571 873.05 570.934 872.933 570.817C872.816 570.7 872.75 570.541 872.75 570.375V568.5H871.5V570.375C871.5 570.541 871.434 570.7 871.317 570.817C871.2 570.934 871.041 571 870.875 571H859.625C859.459 571 859.3 570.934 859.183 570.817C859.066 570.7 859 570.541 859 570.375V563.5C859 563.369 859.041 563.241 859.118 563.135C859.195 563.028 859.303 562.949 859.428 562.907L866.5 560.55V556.625C866.5 556.509 866.532 556.395 866.593 556.297C866.654 556.198 866.741 556.118 866.845 556.066L876.845 551.066C876.94 551.018 877.046 550.996 877.153 551.001C877.26 551.006 877.363 551.038 877.454 551.094V551.094ZM866.5 561.867L860.25 563.95V569.75H866.5V561.867ZM867.75 569.75H870.25V567.875C870.25 567.709 870.316 567.55 870.433 567.433C870.55 567.316 870.709 567.25 870.875 567.25H873.375C873.541 567.25 873.7 567.316 873.817 567.433C873.934 567.55 874 567.709 874 567.875V569.75H876.5V552.636L867.75 557.011V569.75Z" fill="#DFD8D8" fill-opacity="0.51"/>
<path d="M861.5 564.75H862.75V566H861.5V564.75ZM864 564.75H865.25V566H864V564.75ZM861.5 567.25H862.75V568.5H861.5V567.25ZM864 567.25H865.25V568.5H864V567.25ZM869 562.25H870.25V563.5H869V562.25ZM871.5 562.25H872.75V563.5H871.5V562.25ZM869 564.75H870.25V566H869V564.75ZM871.5 564.75H872.75V566H871.5V564.75ZM874 562.25H875.25V563.5H874V562.25ZM874 564.75H875.25V566H874V564.75ZM869 559.75H870.25V561H869V559.75ZM871.5 559.75H872.75V561H871.5V559.75ZM874 559.75H875.25V561H874V559.75ZM869 557.25H870.25V558.5H869V557.25ZM871.5 557.25H872.75V558.5H871.5V557.25ZM874 557.25H875.25V558.5H874V557.25ZM874 554.75H875.25V556H874V554.75Z" fill="#DFD8D8" fill-opacity="0.51"/>
<path fill-rule="evenodd" clip-rule="evenodd" d="M254.454 565.094C254.544 565.15 254.619 565.228 254.671 565.321C254.723 565.414 254.75 565.519 254.75 565.625V584.375C254.75 584.541 254.684 584.7 254.567 584.817C254.45 584.934 254.291 585 254.125 585H250.375C250.209 585 250.05 584.934 249.933 584.817C249.816 584.7 249.75 584.541 249.75 584.375V582.5H248.5V584.375C248.5 584.541 248.434 584.7 248.317 584.817C248.2 584.934 248.041 585 247.875 585H236.625C236.459 585 236.3 584.934 236.183 584.817C236.066 584.7 236 584.541 236 584.375V577.5C236 577.369 236.041 577.241 236.118 577.135C236.195 577.028 236.303 576.949 236.428 576.907L243.5 574.55V570.625C243.5 570.509 243.532 570.395 243.593 570.297C243.654 570.198 243.741 570.118 243.845 570.066L253.845 565.066C253.94 565.018 254.046 564.996 254.153 565.001C254.26 565.006 254.363 565.038 254.454 565.094V565.094ZM243.5 575.867L237.25 577.95V583.75H243.5V575.867ZM244.75 583.75H247.25V581.875C247.25 581.709 247.316 581.55 247.433 581.433C247.55 581.316 247.709 581.25 247.875 581.25H250.375C250.541 581.25 250.7 581.316 250.817 581.433C250.934 581.55 251 581.709 251 581.875V583.75H253.5V566.636L244.75 571.011V583.75Z" fill="#DFD8D8" fill-opacity="0.51"/>
<path d="M238.5 578.75H239.75V580H238.5V578.75ZM241 578.75H242.25V580H241V578.75ZM238.5 581.25H239.75V582.5H238.5V581.25ZM241 581.25H242.25V582.5H241V581.25ZM246 576.25H247.25V577.5H246V576.25ZM248.5 576.25H249.75V577.5H248.5V576.25ZM246 578.75H247.25V580H246V578.75ZM248.5 578.75H249.75V580H248.5V578.75ZM251 576.25H252.25V577.5H251V576.25ZM251 578.75H252.25V580H251V578.75ZM246 573.75H247.25V575H246V573.75ZM248.5 573.75H249.75V575H248.5V573.75ZM251 573.75H252.25V575H251V573.75ZM246 571.25H247.25V572.5H246V571.25ZM248.5 571.25H249.75V572.5H248.5V571.25ZM251 571.25H252.25V572.5H251V571.25ZM251 568.75H252.25V570H251V568.75Z" fill="#DFD8D8" fill-opacity="0.51"/>
<path d="M139 144.664V147.5C139 148.163 139.263 148.799 139.732 149.268C140.201 149.737 140.837 150 141.5 150H152.5C153.163 150 153.799 149.737 154.268 149.268C154.737 148.799 155 148.163 155 147.5V140.5C155 139.837 154.737 139.201 154.268 138.732C153.799 138.263 153.163 138 152.5 138H146.478L147.149 138.672C147.253 138.776 147.349 138.885 147.434 139H152.5C152.898 139 153.279 139.158 153.561 139.439C153.842 139.721 154 140.102 154 140.5V147.5C154 147.898 153.842 148.279 153.561 148.561C153.279 148.842 152.898 149 152.5 149H141.5C141.102 149 140.721 148.842 140.439 148.561C140.158 148.279 140 147.898 140 147.5V145.664L139 144.664Z" fill="#DFD8D8" fill-opacity="0.51"/>
<path d="M142 135.5C142 135.367 142.052 135.24 142.146 135.146C142.24 135.053 142.367 135 142.5 135C142.632 135 142.759 135.053 142.853 135.146C142.947 135.24 143 135.367 143 135.5V136.674C143.48 136.696 143.954 136.891 144.32 137.257L146.443 139.38C146.818 139.755 147.028 140.264 147.028 140.794C147.028 141.324 146.818 141.833 146.443 142.208L143.615 145.037C143.429 145.223 143.208 145.37 142.966 145.471C142.723 145.571 142.463 145.623 142.2 145.623C141.937 145.623 141.677 145.571 141.435 145.471C141.192 145.37 140.971 145.223 140.786 145.037L138.664 142.914C138.289 142.539 138.078 142.03 138.078 141.5C138.078 140.97 138.289 140.461 138.664 140.086L141.492 137.257C141.645 137.104 141.817 136.981 142 136.888V135.5ZM142 139.5V138.164L139.664 140.5H145.984C145.936 140.344 145.85 140.201 145.735 140.086L143.614 137.964C143.449 137.799 143.232 137.697 143 137.676V139.5C143 139.633 142.947 139.76 142.853 139.854C142.759 139.947 142.632 140 142.5 140C142.367 140 142.24 139.947 142.146 139.854C142.052 139.76 142 139.633 142 139.5ZM139.078 141.5C139.078 141.756 139.176 142.012 139.371 142.207L141.492 144.328C141.585 144.421 141.695 144.495 141.816 144.545C141.938 144.595 142.068 144.621 142.199 144.621C142.331 144.621 142.461 144.595 142.582 144.545C142.704 144.495 142.814 144.421 142.907 144.328L145.735 141.5H139.078Z" fill="#DFD8D8" fill-opacity="0.51"/>
<path d="M147.162 142.426L147.377 142.167C147.424 142.114 147.481 142.072 147.546 142.044C147.61 142.015 147.68 142 147.75 142C147.82 142 147.89 142.015 147.954 142.044C148.019 142.072 148.076 142.114 148.123 142.167L148.338 142.427C148.462 142.584 148.628 142.807 148.796 143.067C149.114 143.564 149.5 144.295 149.5 145C149.5 146.009 148.827 147 147.75 147C146.672 147 146 146.009 146 145C146 144.295 146.386 143.564 146.704 143.068C146.871 142.807 147.037 142.584 147.162 142.426ZM147.75 143.307C147.679 143.405 147.611 143.505 147.546 143.607C147.24 144.085 147 144.605 147 145C147 145.293 147.1 145.566 147.248 145.749C147.384 145.916 147.548 146 147.75 146C147.848 146.001 147.944 145.978 148.031 145.935C148.118 145.891 148.194 145.827 148.252 145.749C148.399 145.566 148.5 145.293 148.5 145C148.5 144.604 148.26 144.085 147.954 143.607C147.889 143.505 147.821 143.405 147.75 143.307Z" fill="#DFD8D8" fill-opacity="0.51"/>
<path d="M605 196.996V201.25C605 202.245 605.395 203.198 606.098 203.902C606.802 204.605 607.755 205 608.75 205H625.25C626.245 205 627.198 204.605 627.902 203.902C628.605 203.198 629 202.245 629 201.25V190.75C629 189.755 628.605 188.802 627.902 188.098C627.198 187.395 626.245 187 625.25 187H616.217L617.224 188.008C617.38 188.164 617.524 188.327 617.651 188.5H625.25C625.847 188.5 626.419 188.737 626.841 189.159C627.263 189.581 627.5 190.153 627.5 190.75V201.25C627.5 201.847 627.263 202.419 626.841 202.841C626.419 203.263 625.847 203.5 625.25 203.5H608.75C608.153 203.5 607.581 203.263 607.159 202.841C606.737 202.419 606.5 201.847 606.5 201.25V198.496L605 196.996Z" fill="#DFD8D8" fill-opacity="0.51"/>
<path d="M609.5 183.25C609.5 183.051 609.579 182.86 609.719 182.72C609.86 182.579 610.051 182.5 610.25 182.5C610.448 182.5 610.639 182.579 610.78 182.72C610.921 182.86 611 183.051 611 183.25V185.011C611.72 185.044 612.431 185.336 612.98 185.885L616.164 189.07C616.726 189.633 617.042 190.396 617.042 191.191C617.042 191.986 616.726 192.749 616.164 193.312L611.922 197.555C611.643 197.834 611.313 198.055 610.949 198.206C610.585 198.357 610.194 198.435 609.8 198.435C609.406 198.435 609.016 198.357 608.652 198.206C608.288 198.055 607.957 197.834 607.679 197.555L604.496 194.371C603.933 193.808 603.617 193.045 603.617 192.25C603.617 191.455 603.933 190.692 604.496 190.129L608.738 185.885C608.967 185.656 609.225 185.472 609.5 185.332V183.25ZM609.5 189.25V187.246L605.996 190.75H615.476C615.404 190.515 615.276 190.302 615.102 190.129L611.921 186.946C611.674 186.699 611.348 186.546 611 186.514V189.25C611 189.449 610.921 189.64 610.78 189.78C610.639 189.921 610.448 190 610.25 190C610.051 190 609.86 189.921 609.719 189.78C609.579 189.64 609.5 189.449 609.5 189.25ZM605.117 192.25C605.117 192.634 605.264 193.018 605.556 193.31L608.738 196.492C608.877 196.631 609.042 196.742 609.224 196.818C609.406 196.893 609.602 196.932 609.799 196.932C609.996 196.932 610.191 196.893 610.373 196.818C610.555 196.742 610.721 196.631 610.86 196.492L615.102 192.25H605.117Z" fill="#DFD8D8" fill-opacity="0.51"/>
<path d="M617.243 193.639L617.565 193.25C617.636 193.172 617.722 193.109 617.818 193.065C617.915 193.022 618.019 193 618.125 193C618.231 193 618.335 193.022 618.432 193.065C618.528 193.109 618.614 193.172 618.685 193.25L619.007 193.64C619.193 193.876 619.442 194.21 619.694 194.6C620.171 195.346 620.75 196.442 620.75 197.5C620.75 199.013 619.741 200.5 618.125 200.5C616.508 200.5 615.5 199.013 615.5 197.5C615.5 196.442 616.079 195.346 616.556 194.602C616.807 194.21 617.055 193.876 617.243 193.639ZM618.125 194.96C618.019 195.108 617.917 195.258 617.819 195.41C617.36 196.127 617 196.907 617 197.5C617 197.939 617.15 198.349 617.372 198.623C617.576 198.874 617.822 199 618.125 199C618.271 199.001 618.416 198.968 618.547 198.902C618.678 198.837 618.791 198.741 618.878 198.623C619.098 198.349 619.25 197.939 619.25 197.5C619.25 196.906 618.89 196.127 618.431 195.41C618.333 195.258 618.231 195.108 618.125 194.96V194.96Z" fill="#DFD8D8" fill-opacity="0.51"/>
<g clip-path="url(#clip12)">
<path d="M219.774 209.946L221.367 213.89C221.74 214.812 222.464 215.548 223.379 215.937C224.295 216.326 225.327 216.335 226.249 215.962L241.548 209.781C242.47 209.408 243.206 208.685 243.595 207.769C243.983 206.854 243.992 205.821 243.62 204.899L239.686 195.164C239.314 194.242 238.59 193.505 237.675 193.117C236.759 192.728 235.727 192.719 234.805 193.092L226.43 196.476L227.74 197.033C227.943 197.119 228.138 197.217 228.321 197.329L235.367 194.482C235.92 194.259 236.539 194.264 237.089 194.497C237.638 194.731 238.072 195.172 238.296 195.726L242.229 205.461C242.453 206.014 242.447 206.634 242.214 207.183C241.981 207.733 241.539 208.167 240.986 208.39L225.687 214.571C225.134 214.795 224.515 214.789 223.965 214.556C223.416 214.323 222.982 213.881 222.758 213.328L221.727 210.774L219.774 209.946Z" fill="#DFD8D8" fill-opacity="0.51"/>
<path d="M218.797 195.515C218.722 195.33 218.724 195.124 218.802 194.941C218.879 194.758 219.027 194.613 219.211 194.539C219.395 194.464 219.602 194.466 219.785 194.544C219.968 194.621 220.113 194.769 220.187 194.953L220.847 196.586C221.527 196.347 222.296 196.351 223.01 196.655L227.156 198.415C227.888 198.725 228.467 199.314 228.765 200.052C229.063 200.79 229.056 201.615 228.745 202.348L226.402 207.871C226.248 208.234 226.024 208.563 225.743 208.839C225.462 209.115 225.129 209.333 224.764 209.481C224.398 209.629 224.007 209.703 223.613 209.699C223.219 209.696 222.83 209.615 222.467 209.461L218.323 207.701C217.591 207.39 217.012 206.801 216.714 206.063C216.416 205.326 216.423 204.5 216.734 203.767L219.077 198.244C219.204 197.945 219.374 197.677 219.576 197.445L218.797 195.515ZM221.044 201.078L220.293 199.22L218.357 203.781L227.147 200.23C226.993 200.039 226.794 199.89 226.568 199.794L222.426 198.035C222.104 197.898 221.745 197.878 221.41 197.979L222.435 200.516C222.509 200.7 222.508 200.907 222.43 201.09C222.352 201.273 222.205 201.418 222.02 201.492C221.836 201.567 221.63 201.565 221.446 201.487C221.263 201.41 221.119 201.262 221.044 201.078ZM218.104 205.501C218.248 205.857 218.528 206.158 218.909 206.32L223.051 208.078C223.232 208.155 223.427 208.196 223.624 208.198C223.821 208.199 224.017 208.162 224.199 208.088C224.382 208.015 224.548 207.905 224.689 207.767C224.83 207.629 224.942 207.464 225.018 207.283L227.363 201.761L218.104 205.501Z" fill="#DFD8D8" fill-opacity="0.51"/>
<path d="M229.867 202.247L230.021 201.766C230.056 201.666 230.113 201.576 230.186 201.499C230.259 201.423 230.348 201.363 230.446 201.324C230.544 201.284 230.649 201.266 230.754 201.27C230.86 201.274 230.963 201.3 231.058 201.347L231.503 201.587C231.764 201.736 232.12 201.953 232.5 202.22C233.221 202.733 234.169 203.532 234.565 204.513C235.132 205.916 234.753 207.673 233.255 208.278C231.756 208.883 230.264 207.883 229.697 206.48C229.301 205.499 229.427 204.265 229.591 203.397C229.677 202.94 229.782 202.537 229.867 202.247ZM231.18 203.142C231.137 203.318 231.099 203.495 231.065 203.673C230.908 204.51 230.866 205.368 231.088 205.918C231.253 206.325 231.545 206.649 231.854 206.82C232.137 206.976 232.412 207 232.693 206.887C232.829 206.833 232.951 206.748 233.048 206.638C233.144 206.529 233.214 206.398 233.25 206.256C233.352 205.919 233.339 205.482 233.174 205.075C232.952 204.524 232.326 203.937 231.632 203.444C231.484 203.339 231.333 203.238 231.18 203.142V203.142Z" fill="#DFD8D8" fill-opacity="0.51"/>
</g>
<g clip-path="url(#clip13)">
<path d="M425.385 305.274L424.647 309.463C424.474 310.443 424.697 311.451 425.268 312.265C425.838 313.08 426.709 313.635 427.688 313.807L443.938 316.673C444.917 316.845 445.925 316.622 446.74 316.051C447.555 315.481 448.109 314.61 448.282 313.631L450.105 303.29C450.278 302.311 450.055 301.303 449.484 300.488C448.914 299.674 448.043 299.119 447.063 298.946L438.168 297.378L438.984 298.545C439.11 298.726 439.224 298.912 439.319 299.104L446.803 300.423C447.391 300.527 447.913 300.86 448.255 301.349C448.598 301.837 448.732 302.442 448.628 303.03L446.805 313.37C446.701 313.958 446.368 314.48 445.88 314.823C445.391 315.165 444.786 315.299 444.198 315.195L427.949 312.33C427.361 312.227 426.839 311.894 426.497 311.405C426.154 310.916 426.02 310.311 426.124 309.724L426.602 307.012L425.385 305.274Z" fill="#DFD8D8" fill-opacity="0.51"/>
<path d="M432.204 292.518C432.238 292.322 432.349 292.148 432.512 292.034C432.675 291.92 432.877 291.875 433.073 291.91C433.269 291.944 433.443 292.055 433.557 292.218C433.671 292.381 433.716 292.583 433.681 292.779L433.375 294.513C434.079 294.67 434.728 295.082 435.173 295.718L437.756 299.407C438.213 300.059 438.391 300.865 438.253 301.648C438.115 302.432 437.671 303.128 437.02 303.585L432.105 307.027C431.783 307.253 431.418 307.413 431.034 307.499C430.649 307.584 430.251 307.593 429.863 307.524C429.475 307.456 429.104 307.312 428.772 307.1C428.44 306.888 428.152 306.613 427.926 306.29L425.345 302.601C424.888 301.95 424.71 301.143 424.848 300.36C424.986 299.577 425.43 298.88 426.081 298.424L430.996 294.981C431.262 294.795 431.548 294.658 431.842 294.569L432.204 292.518ZM431.162 298.427L431.51 296.453L427.451 299.296L436.787 300.942C436.757 300.699 436.667 300.466 436.527 300.266L433.946 296.578C433.746 296.292 433.451 296.085 433.114 295.993L432.639 298.687C432.605 298.883 432.494 299.058 432.331 299.172C432.168 299.286 431.966 299.33 431.77 299.296C431.574 299.261 431.4 299.15 431.286 298.987C431.172 298.824 431.127 298.623 431.162 298.427ZM426.325 300.62C426.258 300.998 426.336 301.402 426.573 301.741L429.154 305.427C429.267 305.588 429.411 305.726 429.577 305.832C429.743 305.938 429.929 306.01 430.123 306.044C430.317 306.078 430.516 306.074 430.708 306.031C430.901 305.989 431.083 305.908 431.244 305.795L436.158 302.354L426.325 300.62Z" fill="#DFD8D8" fill-opacity="0.51"/>
<path d="M438.025 304.094L438.411 303.767C438.494 303.702 438.589 303.655 438.692 303.629C438.794 303.603 438.901 303.599 439.005 303.618C439.109 303.636 439.208 303.676 439.296 303.735C439.383 303.795 439.457 303.872 439.513 303.962L439.762 304.402C439.905 304.666 440.092 305.039 440.272 305.466C440.613 306.283 440.992 307.464 440.809 308.505C440.546 309.996 439.294 311.284 437.703 311.004C436.11 310.723 435.376 309.084 435.638 307.594C435.822 306.552 436.583 305.573 437.182 304.923C437.496 304.581 437.8 304.295 438.025 304.094ZM438.665 305.548C438.535 305.675 438.408 305.805 438.285 305.939C437.709 306.565 437.219 307.271 437.116 307.854C437.039 308.287 437.116 308.716 437.287 309.025C437.444 309.307 437.665 309.474 437.963 309.527C438.107 309.553 438.255 309.545 438.395 309.503C438.536 309.462 438.664 309.387 438.77 309.287C439.035 309.055 439.255 308.678 439.332 308.245C439.435 307.66 439.215 306.831 438.888 306.045C438.818 305.877 438.743 305.712 438.665 305.548V305.548Z" fill="#DFD8D8" fill-opacity="0.51"/>
</g>
<g clip-path="url(#clip14)">
<path d="M372.387 396.473L373.184 398.445C373.37 398.906 373.732 399.274 374.19 399.468C374.647 399.663 375.164 399.667 375.625 399.481L383.274 396.391C383.735 396.204 384.103 395.842 384.297 395.385C384.492 394.927 384.496 394.411 384.31 393.95L382.343 389.082C382.157 388.621 381.795 388.253 381.337 388.058C380.88 387.864 380.363 387.86 379.902 388.046L375.715 389.738L376.37 390.017C376.472 390.06 376.569 390.108 376.661 390.165L380.183 388.741C380.46 388.629 380.77 388.632 381.044 388.749C381.319 388.865 381.536 389.086 381.648 389.363L383.615 394.231C383.726 394.507 383.724 394.817 383.607 395.092C383.49 395.366 383.27 395.583 382.993 395.695L375.344 398.786C375.067 398.897 374.757 398.895 374.483 398.778C374.208 398.662 373.991 398.441 373.879 398.164L373.363 396.887L372.387 396.473Z" fill="#DFD8D8" fill-opacity="0.51"/>
<path d="M371.899 389.257C371.861 389.165 371.862 389.062 371.901 388.97C371.94 388.879 372.014 388.806 372.106 388.769C372.198 388.732 372.301 388.733 372.393 388.772C372.485 388.811 372.557 388.884 372.594 388.976L372.924 389.793C373.264 389.673 373.648 389.676 374.006 389.827L376.078 390.707C376.445 390.863 376.734 391.157 376.883 391.526C377.032 391.895 377.028 392.308 376.873 392.674L375.701 395.436C375.624 395.617 375.512 395.781 375.372 395.92C375.231 396.058 375.065 396.167 374.882 396.241C374.7 396.314 374.504 396.351 374.307 396.35C374.11 396.348 373.915 396.307 373.734 396.23L371.662 395.35C371.296 395.195 371.006 394.9 370.857 394.531C370.708 394.163 370.712 393.75 370.867 393.384L372.039 390.622C372.103 390.473 372.188 390.339 372.289 390.223L371.899 389.257ZM373.023 392.039L372.647 391.11L371.679 393.391L376.074 391.615C375.997 391.52 375.897 391.445 375.784 391.397L373.713 390.517C373.553 390.449 373.373 390.439 373.205 390.49L373.718 391.758C373.755 391.85 373.754 391.953 373.715 392.045C373.677 392.137 373.603 392.209 373.511 392.246C373.419 392.283 373.315 392.283 373.224 392.244C373.132 392.205 373.06 392.131 373.023 392.039ZM371.553 394.251C371.624 394.429 371.765 394.579 371.955 394.66L374.026 395.539C374.116 395.578 374.214 395.598 374.312 395.599C374.411 395.6 374.509 395.581 374.6 395.544C374.692 395.507 374.775 395.453 374.845 395.384C374.915 395.314 374.971 395.232 375.01 395.141L376.182 392.38L371.553 394.251Z" fill="#DFD8D8" fill-opacity="0.51"/>
<path d="M377.435 392.623L377.511 392.383C377.529 392.333 377.557 392.288 377.594 392.25C377.631 392.212 377.675 392.182 377.724 392.162C377.773 392.142 377.825 392.133 377.878 392.135C377.931 392.137 377.983 392.15 378.03 392.173L378.253 392.294C378.383 392.368 378.561 392.476 378.751 392.61C379.112 392.866 379.585 393.266 379.784 393.756C380.067 394.458 379.877 395.336 379.129 395.639C378.379 395.942 377.633 395.441 377.35 394.74C377.152 394.25 377.215 393.633 377.296 393.198C377.339 392.97 377.392 392.768 377.435 392.623ZM378.091 393.071C378.069 393.159 378.05 393.248 378.033 393.337C377.955 393.755 377.934 394.184 378.045 394.459C378.127 394.663 378.274 394.824 378.428 394.91C378.569 394.988 378.707 395 378.848 394.943C378.916 394.917 378.976 394.874 379.025 394.819C379.073 394.764 379.108 394.699 379.126 394.628C379.177 394.459 379.17 394.241 379.088 394.037C378.977 393.762 378.664 393.469 378.317 393.222C378.243 393.17 378.168 393.119 378.091 393.071V393.071Z" fill="#DFD8D8" fill-opacity="0.51"/>
</g>
<g clip-path="url(#clip15)">
<path d="M362.385 515.274L361.647 519.463C361.474 520.443 361.697 521.451 362.268 522.265C362.838 523.08 363.709 523.635 364.688 523.807L380.938 526.673C381.917 526.845 382.925 526.622 383.74 526.051C384.555 525.481 385.109 524.61 385.282 523.631L387.105 513.29C387.278 512.311 387.055 511.303 386.484 510.488C385.914 509.674 385.043 509.119 384.063 508.946L375.168 507.378L375.984 508.545C376.11 508.726 376.224 508.912 376.319 509.104L383.803 510.423C384.391 510.527 384.913 510.86 385.255 511.349C385.598 511.837 385.732 512.442 385.628 513.03L383.805 523.37C383.701 523.958 383.368 524.48 382.88 524.823C382.391 525.165 381.786 525.299 381.198 525.195L364.949 522.33C364.361 522.227 363.839 521.894 363.497 521.405C363.154 520.916 363.02 520.311 363.124 519.724L363.602 517.012L362.385 515.274Z" fill="#DFD8D8" fill-opacity="0.51"/>
<path d="M369.204 502.518C369.238 502.322 369.349 502.148 369.512 502.034C369.675 501.92 369.877 501.875 370.073 501.91C370.269 501.944 370.443 502.055 370.557 502.218C370.671 502.381 370.716 502.583 370.681 502.779L370.375 504.513C371.079 504.67 371.728 505.082 372.173 505.718L374.756 509.407C375.213 510.059 375.391 510.865 375.253 511.648C375.115 512.432 374.671 513.128 374.02 513.585L369.105 517.027C368.783 517.253 368.418 517.413 368.034 517.499C367.649 517.584 367.251 517.593 366.863 517.524C366.475 517.456 366.104 517.312 365.772 517.1C365.44 516.888 365.152 516.613 364.926 516.29L362.345 512.601C361.888 511.95 361.71 511.143 361.848 510.36C361.986 509.577 362.43 508.88 363.081 508.424L367.996 504.981C368.262 504.795 368.548 504.658 368.842 504.569L369.204 502.518ZM368.162 508.427L368.51 506.453L364.451 509.296L373.787 510.942C373.757 510.699 373.667 510.466 373.527 510.266L370.946 506.578C370.746 506.292 370.451 506.085 370.114 505.993L369.639 508.687C369.605 508.883 369.494 509.058 369.331 509.172C369.168 509.286 368.966 509.33 368.77 509.296C368.574 509.261 368.4 509.15 368.286 508.987C368.172 508.824 368.127 508.623 368.162 508.427ZM363.325 510.62C363.258 510.998 363.336 511.402 363.573 511.741L366.154 515.427C366.267 515.588 366.411 515.726 366.577 515.832C366.743 515.938 366.929 516.01 367.123 516.044C367.317 516.078 367.516 516.074 367.708 516.031C367.901 515.989 368.083 515.908 368.244 515.795L373.158 512.354L363.325 510.62Z" fill="#DFD8D8" fill-opacity="0.51"/>
<path d="M375.025 514.094L375.411 513.767C375.494 513.702 375.589 513.655 375.692 513.629C375.794 513.603 375.901 513.599 376.005 513.618C376.109 513.636 376.208 513.676 376.296 513.735C376.383 513.795 376.457 513.872 376.513 513.962L376.762 514.402C376.905 514.666 377.092 515.039 377.272 515.466C377.613 516.283 377.992 517.464 377.809 518.505C377.546 519.996 376.294 521.284 374.703 521.004C373.11 520.723 372.376 519.084 372.638 517.594C372.822 516.552 373.583 515.573 374.182 514.923C374.496 514.581 374.8 514.295 375.025 514.094ZM375.665 515.549C375.535 515.675 375.408 515.805 375.285 515.939C374.709 516.565 374.219 517.271 374.116 517.854C374.039 518.287 374.116 518.716 374.287 519.025C374.444 519.307 374.665 519.474 374.963 519.527C375.107 519.553 375.255 519.545 375.395 519.504C375.536 519.462 375.664 519.387 375.77 519.287C376.035 519.055 376.255 518.678 376.332 518.245C376.435 517.66 376.215 516.831 375.888 516.045C375.818 515.877 375.743 515.712 375.665 515.549V515.549Z" fill="#DFD8D8" fill-opacity="0.51"/>
</g>
<circle cx="526" cy="116" r="9.5" stroke="#DFD8D8" stroke-opacity="0.51"/>
<circle cx="726" cy="306" r="9.5" stroke="#DFD8D8" stroke-opacity="0.51"/>
<circle cx="663" cy="78" r="9.5" stroke="#DFD8D8" stroke-opacity="0.51"/>
<circle cx="822.5" cy="127.5" r="7" stroke="#DFD8D8" stroke-opacity="0.51"/>
<circle cx="300.517" cy="312.763" r="7" transform="rotate(-22 300.517 312.763)" stroke="#DFD8D8" stroke-opacity="0.51"/>
<defs>
<linearGradient id="paint0_linear" x1="1151" y1="20.5" x2="90" y2="589.5" gradientUnits="userSpaceOnUse">
<stop stop-color="#4A65FF" stop-opacity="0.66"/>
<stop offset="0.960685" stop-color="#49AEE7"/>
</linearGradient>
<clipPath id="clip0">
<rect width="20" height="20" fill="white" transform="translate(205 407.492) rotate(-22)"/>
</clipPath>
<clipPath id="clip1">
<rect width="30" height="30" fill="white" transform="translate(976.209 81) rotate(10)"/>
</clipPath>
<clipPath id="clip2">
<rect width="30" height="30" fill="white" transform="translate(1063.21 297) rotate(10)"/>
</clipPath>
<clipPath id="clip3">
<rect width="15" height="15" fill="white" transform="translate(267 479.491) rotate(-50)"/>
</clipPath>
<clipPath id="clip4">
<rect width="30" height="30" fill="white" transform="translate(683.209 558) rotate(10)"/>
</clipPath>
<clipPath id="clip5">
<rect width="20" height="20" fill="white" transform="translate(1022.47 200) rotate(10)"/>
</clipPath>
<clipPath id="clip6">
<rect width="15" height="15" fill="white" transform="translate(129.82 328.685) rotate(-22)"/>
</clipPath>
<clipPath id="clip7">
<rect width="15" height="15" fill="white" transform="translate(881 536.491) rotate(-50)"/>
</clipPath>
<clipPath id="clip8">
<rect width="20" height="20" fill="white" transform="translate(590 348.321) rotate(-50)"/>
</clipPath>
<clipPath id="clip9">
<rect width="20" height="20" fill="white" transform="translate(753 464.321) rotate(-50)"/>
</clipPath>
<clipPath id="clip10">
<rect width="15" height="15" fill="white" transform="translate(1021.93 374.424) rotate(-50)"/>
</clipPath>
<clipPath id="clip11">
<rect width="30" height="30" fill="white" transform="translate(468 175.238) rotate(-22)"/>
</clipPath>
<clipPath id="clip12">
<rect width="30" height="30" fill="white" transform="translate(211 196.238) rotate(-22)"/>
</clipPath>
<clipPath id="clip13">
<rect width="30" height="30" fill="white" transform="translate(425.209 289) rotate(10)"/>
</clipPath>
<clipPath id="clip14">
<rect width="15" height="15" fill="white" transform="translate(368 389.619) rotate(-22)"/>
</clipPath>
<clipPath id="clip15">
<rect width="30" height="30" fill="white" transform="translate(362.209 499) rotate(10)"/>
</clipPath>
</defs>
</svg>
