<svg width="42" height="29" viewBox="0 0 42 29" fill="none" xmlns="http://www.w3.org/2000/svg">
<mask id="path-1-outside-1" maskUnits="userSpaceOnUse" x="0" y="0" width="42" height="29" fill="black">
<rect fill="white" width="42" height="29"/>
<path fill-rule="evenodd" clip-rule="evenodd" d="M20.0213 1.10585C18.4734 1.44663 17.2592 2.38468 16.5532 3.78515C15.837 5.20601 15.8721 6.8878 16.6489 8.37303C17.0157 9.07421 18.0015 10.0258 18.7322 10.384C20.6959 11.3464 22.9316 11.0031 24.4428 9.50725C25.4599 8.50046 25.9295 7.40843 25.9383 6.02929C25.9442 5.11936 25.8007 4.49319 25.4117 3.7314C24.3964 1.74288 22.1338 0.640773 20.0213 1.10585ZM21.8392 2.27991C22.7932 2.50483 23.6644 3.1228 24.1965 3.95202C25.076 5.32257 24.9262 7.23772 23.8421 8.48335C22.6447 9.85913 20.4868 10.1422 18.9192 9.12897C18.3223 8.74319 17.9203 8.27772 17.5914 7.59179C16.8735 6.09436 17.1958 4.36921 18.4046 3.23851C19.3758 2.33007 20.6013 1.98804 21.8392 2.27991ZM8.38143 6.08202C6.9219 6.36038 5.69222 7.65124 5.43628 9.17382C5.17042 10.7552 6.03503 12.3673 7.52995 13.0772C8.06979 13.3336 8.22597 13.371 8.87347 13.3994C9.77636 13.4388 10.4207 13.2827 11.0587 12.87C12.4504 11.9697 13.0876 10.3508 12.6746 8.76483C12.3332 7.45436 11.2046 6.39272 9.84706 6.10499C9.25245 5.97897 8.94683 5.97421 8.38143 6.08202ZM32.1121 6.10851C30.7954 6.3946 29.656 7.47897 29.3211 8.76483C28.9067 10.3558 29.5408 11.9668 30.937 12.87C31.575 13.2827 32.2193 13.4388 33.1222 13.3994C33.7697 13.371 33.9259 13.3336 34.4657 13.0772C35.5864 12.545 36.3467 11.5359 36.5588 10.2994C36.8879 8.37975 35.4971 6.43194 33.5421 6.07491C32.9646 5.96944 32.7267 5.97499 32.1121 6.10851ZM10.0026 7.36311C10.4818 7.52639 11.1089 8.09468 11.3665 8.59897C11.6564 9.16678 11.7003 10.0052 11.4717 10.6111C11.2614 11.1683 10.821 11.6717 10.2834 11.9694C9.90198 12.1807 9.79948 12.2012 9.12284 12.2012C8.49534 12.2012 8.3212 12.1719 7.99604 12.0119C7.48261 11.7592 7.04268 11.305 6.79065 10.7674C6.51511 10.1798 6.5037 9.26241 6.76511 8.72218C7.38237 7.44686 8.66643 6.90788 10.0026 7.36311ZM33.878 7.40108C34.6332 7.73515 35.1045 8.27585 35.3368 9.07491C35.6667 10.2096 35.0906 11.4749 33.9996 12.0119C33.6745 12.1719 33.5003 12.2012 32.8728 12.2012C32.1962 12.2012 32.0937 12.1807 31.7123 11.9694C30.8084 11.4688 30.3321 10.6087 30.3914 9.58397C30.4328 8.86952 30.6708 8.35499 31.1749 7.89038C31.5938 7.50429 31.7271 7.42944 32.2632 7.2796C32.7684 7.13843 33.3899 7.18515 33.878 7.40108ZM15.4451 12.5763C13.9572 13.1154 12.8567 14.1008 12.1996 15.4824C11.6549 16.6279 11.6619 16.5483 11.6619 21.5371C11.6619 25.6604 11.6733 26.0579 11.8009 26.3775C12.16 27.2774 12.7918 27.9295 13.6344 28.2697L14.0838 28.4512L20.7244 28.4749C25.4842 28.4919 27.4971 28.4733 27.8312 28.409C29.0985 28.1654 30.0602 27.183 30.2989 25.8878C30.3542 25.5879 30.3728 23.9972 30.3539 21.2003C30.3222 16.5233 30.3305 16.6086 29.7957 15.4824C29.2427 14.318 28.3584 13.4234 27.2088 12.8652C26.0461 12.3008 25.3714 12.2641 24.3963 12.7125C23.1257 13.2968 22.2803 13.4902 20.9978 13.4902C19.7125 13.4902 18.8589 13.2944 17.5994 12.7104C16.8449 12.3605 16.1586 12.3179 15.4451 12.5763ZM17.3157 13.8719C18.7419 14.5137 19.6937 14.6959 21.3372 14.6415C22.6671 14.5975 23.341 14.4528 24.3963 13.985C25.346 13.5639 25.5458 13.5195 25.9751 13.6344C27.1573 13.9505 28.2721 14.9083 28.7789 16.043C29.182 16.9456 29.2095 17.3336 29.1847 21.7725L29.1619 25.873L28.9305 26.2908C28.6759 26.7504 28.245 27.0948 27.7542 27.2312C27.318 27.3522 14.6777 27.3522 14.2415 27.2312C13.7507 27.0948 13.3198 26.7504 13.0652 26.2908L12.8338 25.873L12.8088 21.8496C12.7822 17.5652 12.8141 17.0328 13.1464 16.2112C13.602 15.0851 14.5978 14.1195 15.7128 13.7229C16.3089 13.5108 16.5667 13.5348 17.3157 13.8719ZM5.32409 14.9348C3.42159 15.3487 1.74292 16.9641 1.18323 18.9199C0.986278 19.6083 0.928699 23.6059 1.10706 24.2101C1.29542 24.8483 1.72839 25.3554 2.35987 25.6777L2.89581 25.9512L6.39972 25.9744L9.9037 25.9977L10.0992 25.8022C10.3475 25.5539 10.3551 25.2148 10.1172 24.9914C9.94245 24.8271 9.8887 24.8243 6.50393 24.8019C3.07886 24.7794 3.06729 24.7787 2.78073 24.6005C2.608 24.4931 2.42612 24.2831 2.32495 24.0741C2.16261 23.7387 2.15776 23.6512 2.188 21.5966C2.22143 19.3194 2.24214 19.1858 2.70143 18.2855C3.26487 17.1811 4.61323 16.214 5.84464 16.0311C6.10948 15.9918 6.34526 16.0276 6.82675 16.1801C7.74651 16.4714 8.20315 16.5443 9.11331 16.5449C9.84472 16.5455 9.94222 16.5285 10.1094 16.3715C10.3519 16.1437 10.351 15.805 10.1072 15.5612C9.93347 15.3875 9.86011 15.3737 9.11112 15.3732C8.31995 15.3726 8.20737 15.3523 6.70347 14.9365C6.19659 14.7963 5.96222 14.796 5.32409 14.9348ZM35.2947 14.9314C33.9784 15.3151 33.6664 15.3726 32.8975 15.3732C32.2183 15.3737 32.0725 15.3968 31.9014 15.5314C31.6356 15.7405 31.6286 16.1294 31.8863 16.3715C32.0535 16.5285 32.151 16.5455 32.8824 16.5449C33.7925 16.5443 34.2492 16.4714 35.1689 16.1801C35.6504 16.0276 35.8862 15.9918 36.151 16.0311C37.3825 16.214 38.7308 17.1811 39.2943 18.2855C39.7535 19.1858 39.7742 19.3194 39.8077 21.5966C39.8379 23.6512 39.8331 23.7387 39.6707 24.0741C39.5696 24.2831 39.3877 24.4931 39.215 24.6005C38.9284 24.7787 38.9168 24.7794 35.4917 24.8019C32.107 24.8243 32.0532 24.8271 31.8785 24.9914C31.6406 25.2148 31.6482 25.5539 31.8964 25.8022L32.092 25.9977L35.596 25.9744L39.0999 25.9512L39.6358 25.6777C40.2611 25.3587 40.6752 24.8747 40.88 24.2237C41.0674 23.6279 41.0163 19.6316 40.8121 18.9199C40.246 16.9464 38.564 15.3401 36.6356 14.9314C36.0046 14.7976 35.7534 14.7976 35.2947 14.9314Z"/>
</mask>
<path fill-rule="evenodd" clip-rule="evenodd" d="M20.0213 1.10585C18.4734 1.44663 17.2592 2.38468 16.5532 3.78515C15.837 5.20601 15.8721 6.8878 16.6489 8.37303C17.0157 9.07421 18.0015 10.0258 18.7322 10.384C20.6959 11.3464 22.9316 11.0031 24.4428 9.50725C25.4599 8.50046 25.9295 7.40843 25.9383 6.02929C25.9442 5.11936 25.8007 4.49319 25.4117 3.7314C24.3964 1.74288 22.1338 0.640773 20.0213 1.10585ZM21.8392 2.27991C22.7932 2.50483 23.6644 3.1228 24.1965 3.95202C25.076 5.32257 24.9262 7.23772 23.8421 8.48335C22.6447 9.85913 20.4868 10.1422 18.9192 9.12897C18.3223 8.74319 17.9203 8.27772 17.5914 7.59179C16.8735 6.09436 17.1958 4.36921 18.4046 3.23851C19.3758 2.33007 20.6013 1.98804 21.8392 2.27991ZM8.38143 6.08202C6.9219 6.36038 5.69222 7.65124 5.43628 9.17382C5.17042 10.7552 6.03503 12.3673 7.52995 13.0772C8.06979 13.3336 8.22597 13.371 8.87347 13.3994C9.77636 13.4388 10.4207 13.2827 11.0587 12.87C12.4504 11.9697 13.0876 10.3508 12.6746 8.76483C12.3332 7.45436 11.2046 6.39272 9.84706 6.10499C9.25245 5.97897 8.94683 5.97421 8.38143 6.08202ZM32.1121 6.10851C30.7954 6.3946 29.656 7.47897 29.3211 8.76483C28.9067 10.3558 29.5408 11.9668 30.937 12.87C31.575 13.2827 32.2193 13.4388 33.1222 13.3994C33.7697 13.371 33.9259 13.3336 34.4657 13.0772C35.5864 12.545 36.3467 11.5359 36.5588 10.2994C36.8879 8.37975 35.4971 6.43194 33.5421 6.07491C32.9646 5.96944 32.7267 5.97499 32.1121 6.10851ZM10.0026 7.36311C10.4818 7.52639 11.1089 8.09468 11.3665 8.59897C11.6564 9.16678 11.7003 10.0052 11.4717 10.6111C11.2614 11.1683 10.821 11.6717 10.2834 11.9694C9.90198 12.1807 9.79948 12.2012 9.12284 12.2012C8.49534 12.2012 8.3212 12.1719 7.99604 12.0119C7.48261 11.7592 7.04268 11.305 6.79065 10.7674C6.51511 10.1798 6.5037 9.26241 6.76511 8.72218C7.38237 7.44686 8.66643 6.90788 10.0026 7.36311ZM33.878 7.40108C34.6332 7.73515 35.1045 8.27585 35.3368 9.07491C35.6667 10.2096 35.0906 11.4749 33.9996 12.0119C33.6745 12.1719 33.5003 12.2012 32.8728 12.2012C32.1962 12.2012 32.0937 12.1807 31.7123 11.9694C30.8084 11.4688 30.3321 10.6087 30.3914 9.58397C30.4328 8.86952 30.6708 8.35499 31.1749 7.89038C31.5938 7.50429 31.7271 7.42944 32.2632 7.2796C32.7684 7.13843 33.3899 7.18515 33.878 7.40108ZM15.4451 12.5763C13.9572 13.1154 12.8567 14.1008 12.1996 15.4824C11.6549 16.6279 11.6619 16.5483 11.6619 21.5371C11.6619 25.6604 11.6733 26.0579 11.8009 26.3775C12.16 27.2774 12.7918 27.9295 13.6344 28.2697L14.0838 28.4512L20.7244 28.4749C25.4842 28.4919 27.4971 28.4733 27.8312 28.409C29.0985 28.1654 30.0602 27.183 30.2989 25.8878C30.3542 25.5879 30.3728 23.9972 30.3539 21.2003C30.3222 16.5233 30.3305 16.6086 29.7957 15.4824C29.2427 14.318 28.3584 13.4234 27.2088 12.8652C26.0461 12.3008 25.3714 12.2641 24.3963 12.7125C23.1257 13.2968 22.2803 13.4902 20.9978 13.4902C19.7125 13.4902 18.8589 13.2944 17.5994 12.7104C16.8449 12.3605 16.1586 12.3179 15.4451 12.5763ZM17.3157 13.8719C18.7419 14.5137 19.6937 14.6959 21.3372 14.6415C22.6671 14.5975 23.341 14.4528 24.3963 13.985C25.346 13.5639 25.5458 13.5195 25.9751 13.6344C27.1573 13.9505 28.2721 14.9083 28.7789 16.043C29.182 16.9456 29.2095 17.3336 29.1847 21.7725L29.1619 25.873L28.9305 26.2908C28.6759 26.7504 28.245 27.0948 27.7542 27.2312C27.318 27.3522 14.6777 27.3522 14.2415 27.2312C13.7507 27.0948 13.3198 26.7504 13.0652 26.2908L12.8338 25.873L12.8088 21.8496C12.7822 17.5652 12.8141 17.0328 13.1464 16.2112C13.602 15.0851 14.5978 14.1195 15.7128 13.7229C16.3089 13.5108 16.5667 13.5348 17.3157 13.8719ZM5.32409 14.9348C3.42159 15.3487 1.74292 16.9641 1.18323 18.9199C0.986278 19.6083 0.928699 23.6059 1.10706 24.2101C1.29542 24.8483 1.72839 25.3554 2.35987 25.6777L2.89581 25.9512L6.39972 25.9744L9.9037 25.9977L10.0992 25.8022C10.3475 25.5539 10.3551 25.2148 10.1172 24.9914C9.94245 24.8271 9.8887 24.8243 6.50393 24.8019C3.07886 24.7794 3.06729 24.7787 2.78073 24.6005C2.608 24.4931 2.42612 24.2831 2.32495 24.0741C2.16261 23.7387 2.15776 23.6512 2.188 21.5966C2.22143 19.3194 2.24214 19.1858 2.70143 18.2855C3.26487 17.1811 4.61323 16.214 5.84464 16.0311C6.10948 15.9918 6.34526 16.0276 6.82675 16.1801C7.74651 16.4714 8.20315 16.5443 9.11331 16.5449C9.84472 16.5455 9.94222 16.5285 10.1094 16.3715C10.3519 16.1437 10.351 15.805 10.1072 15.5612C9.93347 15.3875 9.86011 15.3737 9.11112 15.3732C8.31995 15.3726 8.20737 15.3523 6.70347 14.9365C6.19659 14.7963 5.96222 14.796 5.32409 14.9348ZM35.2947 14.9314C33.9784 15.3151 33.6664 15.3726 32.8975 15.3732C32.2183 15.3737 32.0725 15.3968 31.9014 15.5314C31.6356 15.7405 31.6286 16.1294 31.8863 16.3715C32.0535 16.5285 32.151 16.5455 32.8824 16.5449C33.7925 16.5443 34.2492 16.4714 35.1689 16.1801C35.6504 16.0276 35.8862 15.9918 36.151 16.0311C37.3825 16.214 38.7308 17.1811 39.2943 18.2855C39.7535 19.1858 39.7742 19.3194 39.8077 21.5966C39.8379 23.6512 39.8331 23.7387 39.6707 24.0741C39.5696 24.2831 39.3877 24.4931 39.215 24.6005C38.9284 24.7787 38.9168 24.7794 35.4917 24.8019C32.107 24.8243 32.0532 24.8271 31.8785 24.9914C31.6406 25.2148 31.6482 25.5539 31.8964 25.8022L32.092 25.9977L35.596 25.9744L39.0999 25.9512L39.6358 25.6777C40.2611 25.3587 40.6752 24.8747 40.88 24.2237C41.0674 23.6279 41.0163 19.6316 40.8121 18.9199C40.246 16.9464 38.564 15.3401 36.6356 14.9314C36.0046 14.7976 35.7534 14.7976 35.2947 14.9314Z" fill="black"/>
<path fill-rule="evenodd" clip-rule="evenodd" d="M20.0213 1.10585C18.4734 1.44663 17.2592 2.38468 16.5532 3.78515C15.837 5.20601 15.8721 6.8878 16.6489 8.37303C17.0157 9.07421 18.0015 10.0258 18.7322 10.384C20.6959 11.3464 22.9316 11.0031 24.4428 9.50725C25.4599 8.50046 25.9295 7.40843 25.9383 6.02929C25.9442 5.11936 25.8007 4.49319 25.4117 3.7314C24.3964 1.74288 22.1338 0.640773 20.0213 1.10585ZM21.8392 2.27991C22.7932 2.50483 23.6644 3.1228 24.1965 3.95202C25.076 5.32257 24.9262 7.23772 23.8421 8.48335C22.6447 9.85913 20.4868 10.1422 18.9192 9.12897C18.3223 8.74319 17.9203 8.27772 17.5914 7.59179C16.8735 6.09436 17.1958 4.36921 18.4046 3.23851C19.3758 2.33007 20.6013 1.98804 21.8392 2.27991ZM8.38143 6.08202C6.9219 6.36038 5.69222 7.65124 5.43628 9.17382C5.17042 10.7552 6.03503 12.3673 7.52995 13.0772C8.06979 13.3336 8.22597 13.371 8.87347 13.3994C9.77636 13.4388 10.4207 13.2827 11.0587 12.87C12.4504 11.9697 13.0876 10.3508 12.6746 8.76483C12.3332 7.45436 11.2046 6.39272 9.84706 6.10499C9.25245 5.97897 8.94683 5.97421 8.38143 6.08202ZM32.1121 6.10851C30.7954 6.3946 29.656 7.47897 29.3211 8.76483C28.9067 10.3558 29.5408 11.9668 30.937 12.87C31.575 13.2827 32.2193 13.4388 33.1222 13.3994C33.7697 13.371 33.9259 13.3336 34.4657 13.0772C35.5864 12.545 36.3467 11.5359 36.5588 10.2994C36.8879 8.37975 35.4971 6.43194 33.5421 6.07491C32.9646 5.96944 32.7267 5.97499 32.1121 6.10851ZM10.0026 7.36311C10.4818 7.52639 11.1089 8.09468 11.3665 8.59897C11.6564 9.16678 11.7003 10.0052 11.4717 10.6111C11.2614 11.1683 10.821 11.6717 10.2834 11.9694C9.90198 12.1807 9.79948 12.2012 9.12284 12.2012C8.49534 12.2012 8.3212 12.1719 7.99604 12.0119C7.48261 11.7592 7.04268 11.305 6.79065 10.7674C6.51511 10.1798 6.5037 9.26241 6.76511 8.72218C7.38237 7.44686 8.66643 6.90788 10.0026 7.36311ZM33.878 7.40108C34.6332 7.73515 35.1045 8.27585 35.3368 9.07491C35.6667 10.2096 35.0906 11.4749 33.9996 12.0119C33.6745 12.1719 33.5003 12.2012 32.8728 12.2012C32.1962 12.2012 32.0937 12.1807 31.7123 11.9694C30.8084 11.4688 30.3321 10.6087 30.3914 9.58397C30.4328 8.86952 30.6708 8.35499 31.1749 7.89038C31.5938 7.50429 31.7271 7.42944 32.2632 7.2796C32.7684 7.13843 33.3899 7.18515 33.878 7.40108ZM15.4451 12.5763C13.9572 13.1154 12.8567 14.1008 12.1996 15.4824C11.6549 16.6279 11.6619 16.5483 11.6619 21.5371C11.6619 25.6604 11.6733 26.0579 11.8009 26.3775C12.16 27.2774 12.7918 27.9295 13.6344 28.2697L14.0838 28.4512L20.7244 28.4749C25.4842 28.4919 27.4971 28.4733 27.8312 28.409C29.0985 28.1654 30.0602 27.183 30.2989 25.8878C30.3542 25.5879 30.3728 23.9972 30.3539 21.2003C30.3222 16.5233 30.3305 16.6086 29.7957 15.4824C29.2427 14.318 28.3584 13.4234 27.2088 12.8652C26.0461 12.3008 25.3714 12.2641 24.3963 12.7125C23.1257 13.2968 22.2803 13.4902 20.9978 13.4902C19.7125 13.4902 18.8589 13.2944 17.5994 12.7104C16.8449 12.3605 16.1586 12.3179 15.4451 12.5763ZM17.3157 13.8719C18.7419 14.5137 19.6937 14.6959 21.3372 14.6415C22.6671 14.5975 23.341 14.4528 24.3963 13.985C25.346 13.5639 25.5458 13.5195 25.9751 13.6344C27.1573 13.9505 28.2721 14.9083 28.7789 16.043C29.182 16.9456 29.2095 17.3336 29.1847 21.7725L29.1619 25.873L28.9305 26.2908C28.6759 26.7504 28.245 27.0948 27.7542 27.2312C27.318 27.3522 14.6777 27.3522 14.2415 27.2312C13.7507 27.0948 13.3198 26.7504 13.0652 26.2908L12.8338 25.873L12.8088 21.8496C12.7822 17.5652 12.8141 17.0328 13.1464 16.2112C13.602 15.0851 14.5978 14.1195 15.7128 13.7229C16.3089 13.5108 16.5667 13.5348 17.3157 13.8719ZM5.32409 14.9348C3.42159 15.3487 1.74292 16.9641 1.18323 18.9199C0.986278 19.6083 0.928699 23.6059 1.10706 24.2101C1.29542 24.8483 1.72839 25.3554 2.35987 25.6777L2.89581 25.9512L6.39972 25.9744L9.9037 25.9977L10.0992 25.8022C10.3475 25.5539 10.3551 25.2148 10.1172 24.9914C9.94245 24.8271 9.8887 24.8243 6.50393 24.8019C3.07886 24.7794 3.06729 24.7787 2.78073 24.6005C2.608 24.4931 2.42612 24.2831 2.32495 24.0741C2.16261 23.7387 2.15776 23.6512 2.188 21.5966C2.22143 19.3194 2.24214 19.1858 2.70143 18.2855C3.26487 17.1811 4.61323 16.214 5.84464 16.0311C6.10948 15.9918 6.34526 16.0276 6.82675 16.1801C7.74651 16.4714 8.20315 16.5443 9.11331 16.5449C9.84472 16.5455 9.94222 16.5285 10.1094 16.3715C10.3519 16.1437 10.351 15.805 10.1072 15.5612C9.93347 15.3875 9.86011 15.3737 9.11112 15.3732C8.31995 15.3726 8.20737 15.3523 6.70347 14.9365C6.19659 14.7963 5.96222 14.796 5.32409 14.9348ZM35.2947 14.9314C33.9784 15.3151 33.6664 15.3726 32.8975 15.3732C32.2183 15.3737 32.0725 15.3968 31.9014 15.5314C31.6356 15.7405 31.6286 16.1294 31.8863 16.3715C32.0535 16.5285 32.151 16.5455 32.8824 16.5449C33.7925 16.5443 34.2492 16.4714 35.1689 16.1801C35.6504 16.0276 35.8862 15.9918 36.151 16.0311C37.3825 16.214 38.7308 17.1811 39.2943 18.2855C39.7535 19.1858 39.7742 19.3194 39.8077 21.5966C39.8379 23.6512 39.8331 23.7387 39.6707 24.0741C39.5696 24.2831 39.3877 24.4931 39.215 24.6005C38.9284 24.7787 38.9168 24.7794 35.4917 24.8019C32.107 24.8243 32.0532 24.8271 31.8785 24.9914C31.6406 25.2148 31.6482 25.5539 31.8964 25.8022L32.092 25.9977L35.596 25.9744L39.0999 25.9512L39.6358 25.6777C40.2611 25.3587 40.6752 24.8747 40.88 24.2237C41.0674 23.6279 41.0163 19.6316 40.8121 18.9199C40.246 16.9464 38.564 15.3401 36.6356 14.9314C36.0046 14.7976 35.7534 14.7976 35.2947 14.9314Z" stroke="black" stroke-width="0.6" mask="url(#path-1-outside-1)"/>
</svg>
